<?xml version="1.0" encoding="UTF-8"?>
<svg version="1.1" xmlns="http://www.w3.org/2000/svg" width="1254" height="1254">
<path d="M0 0 C413.82 0 827.64 0 1254 0 C1254 413.82 1254 827.64 1254 1254 C840.18 1254 426.36 1254 0 1254 C0 840.18 0 426.36 0 0 Z " fill="#FCFCFC" transform="translate(0,0)"/>
<path d="M0 0 C0.98919434 0.09120117 1.97838867 0.18240234 2.99755859 0.27636719 C20.67886078 1.94358675 37.79018115 5.76129911 55 10 C55.89444824 10.21914062 56.78889648 10.43828125 57.71044922 10.6640625 C105.83052665 22.67156779 151.34102728 44.97651833 190 76 C190.84820313 76.67417969 191.69640625 77.34835938 192.5703125 78.04296875 C209.7144351 91.84130104 226.70203347 107.4188773 240 125 C241.13635576 126.4586162 242.27311277 127.91691984 243.41015625 129.375 C269.55286577 163.21449638 288.7136867 201.75544181 300 243 C300.23412598 243.84046875 300.46825195 244.6809375 300.70947266 245.546875 C309.68243804 278.08746507 309.68243804 278.08746507 309 293 C306.68245825 289.06017902 305.83786918 284.76652367 304.75 280.375 C293.27185571 235.99817162 271.58489943 194.01688097 242 159 C241.1219454 157.93526713 240.24436177 156.87014574 239.3671875 155.8046875 C228.15330814 142.31417465 215.86377814 129.76880626 202 119 C200.08032179 117.42031929 198.16367395 115.83694913 196.25 114.25 C192.27105154 110.99034494 188.23513762 107.91753925 184 105 C184.56267578 105.99966797 184.56267578 105.99966797 185.13671875 107.01953125 C191.42519673 118.3451276 196.09503232 129.68688913 200 142 C193.11517308 140.71438121 186.30782611 139.16055702 179.50610352 137.49707031 C169.47388745 135.08184128 159.88564905 133.69640698 149.55078125 133.5859375 C148.41215134 133.56657135 147.27352142 133.5472052 146.10038757 133.5272522 C142.50449851 133.46801979 138.90857645 133.42129831 135.3125 133.375 C132.8574088 133.33676829 130.40233026 133.29771364 127.94726562 133.2578125 C121.96495717 133.16236535 115.98257084 133.07715727 110 133 C109.80600616 134.09891571 109.80600616 134.09891571 109.60809326 135.22003174 C109.43417053 136.19317322 109.2602478 137.1663147 109.08105469 138.16894531 C108.91047546 139.12843079 108.73989624 140.08791626 108.56414795 141.07647705 C107.67348516 145.69206254 106.46968434 150.21227967 105.25 154.75 C104.71089216 156.78774842 104.1718309 158.82550917 103.6328125 160.86328125 C103.22337402 162.40169678 103.22337402 162.40169678 102.80566406 163.97119141 C98.01997669 181.96247549 93.46051365 200.00848184 88.97949219 218.07763672 C88.29846389 220.81653981 87.60445859 223.55182233 86.90332031 226.28564453 C86.63178635 227.35154564 86.63178635 227.35154564 86.35476685 228.4389801 C85.85108827 230.414451 85.34387181 232.38901889 84.83642578 234.36352539 C84.42239502 236.16358032 84.42239502 236.16358032 84 238 C83.71415039 239.16499023 83.42830078 240.32998047 83.13378906 241.53027344 C82.96140582 246.00091332 84.55730647 248.46029267 87.0390625 251.98046875 C87.47141205 252.62665161 87.9037616 253.27283447 88.34921265 253.93859863 C89.75689405 256.03407624 91.19064801 258.11021094 92.625 260.1875 C93.60359872 261.63575184 94.58015197 263.08538786 95.5546875 264.53637695 C97.48253578 267.40264331 99.41908912 270.26264849 101.36425781 273.1171875 C104.640737 277.93215433 107.83562482 282.79824791 111 287.6875 C111.75845215 288.85647827 111.75845215 288.85647827 112.53222656 290.04907227 C122.68871072 305.75278716 132.28709217 321.75449282 141.58984375 337.9765625 C142.17862305 338.97469971 142.76740234 339.97283691 143.37402344 341.0012207 C145 344 145 344 146.18066406 347.14526367 C147.48237423 350.38241133 148.52950338 352.52246172 151 355 C156.58273552 356.7548722 162.05898317 356.91111089 167.875 357.0625 C170.17832917 357.1706273 172.4804075 357.29362174 174.78274536 357.42100525 C176.20904596 357.49469518 177.63614737 357.55474191 179.06369019 357.59815979 C183.1701301 357.74984564 186.84465643 358.42161348 190.80276489 359.49064636 C195.23027496 360.5170128 199.76509759 360.84559073 204.28125 361.2890625 C205.33534058 361.39721283 206.38943115 361.50536316 207.47546387 361.61679077 C210.81644735 361.95832028 214.15817848 362.29178091 217.5 362.625 C219.77609598 362.85623684 222.05213833 363.08800219 224.328125 363.3203125 C229.8848108 363.88632482 235.44213146 364.44572854 241 365 C241 365.66 241 366.32 241 367 C240.06542969 367.04898437 239.13085938 367.09796875 238.16796875 367.1484375 C231.12500619 367.5493127 224.12104561 368.05580089 217.109375 368.84375 C203.34110641 370.33603239 189.54155373 371.50900453 175.74584961 372.71435547 C171.82699912 373.05704761 167.90874921 373.40617714 163.99059391 373.75671577 C160.92712145 374.02962385 157.86324899 374.29781972 154.79925346 374.564785 C153.35486082 374.69142374 151.91061549 374.81975641 150.46653938 374.94995499 C141.96245867 375.71480167 133.5434193 376.17966322 125 376 C125 376.66 125 377.32 125 378 C123.50448608 378.10489746 123.50448608 378.10489746 121.97875977 378.21191406 C102.2762872 379.60303046 82.59605799 381.14201308 62.9375 383.0625 C61.66895676 383.18522278 61.66895676 383.18522278 60.37478638 383.3104248 C52.4132385 384.08413124 44.48363372 384.90593073 36.56640625 386.05859375 C29.97628726 386.97229411 23.44073908 387.33029764 16.80181885 387.61242676 C8.1386211 387.99707544 -0.46624508 388.80051675 -9.09204102 389.67456055 C-11.69695373 389.93845773 -14.3024809 390.19540294 -16.90820312 390.45117188 C-25.68465919 391.31971594 -34.44831029 392.26423298 -43.20513916 393.31221008 C-48.7772322 393.97889596 -54.35176211 394.58544337 -59.9375 395.125 C-60.77861328 395.21136719 -61.61972656 395.29773438 -62.48632812 395.38671875 C-66.77503476 395.80207389 -71.00040655 396.04404445 -75.31079102 396.02294922 C-76.63567284 396.01797928 -76.63567284 396.01797928 -77.98731995 396.01290894 C-78.65150436 396.00864899 -79.31568878 396.00438904 -80 396 C-79.96574669 394.82445053 -79.96574669 394.82445053 -79.93080139 393.62515259 C-79.86069382 391.21691346 -79.79076667 388.80866908 -79.72096252 386.40042114 C-79.63772663 383.53228644 -79.55327849 380.66419042 -79.46812439 377.79611206 C-79.23370438 369.85082673 -79.01816888 361.9055994 -78.83398438 353.95898438 C-78.75725741 350.74604102 -78.67829527 347.53315998 -78.59765625 344.3203125 C-78.577813 343.52394127 -78.55796974 342.72757004 -78.53752518 341.90706635 C-78.28315268 332.06308047 -77.79337356 322.30046595 -76.87109375 312.4921875 C-74.65180665 296.30880973 -74.65180665 296.30880973 -78.78222656 281.15380859 C-83.70583071 276.20843693 -89.47172557 273.69336341 -95.92236328 271.25585938 C-100.84921879 269.24540842 -105.12442539 266.34127965 -109.5625 263.4375 C-111.30920023 262.35274145 -113.05920843 261.27329113 -114.8125 260.19921875 C-118.21242097 258.10417015 -121.60838255 256.00299562 -125 253.89453125 C-137.78913674 245.94677465 -150.6308261 238.08676863 -163.52581787 230.31207275 C-167.26561657 228.05521277 -170.99302083 225.77922517 -174.71331787 223.4903717 C-177.18803075 221.97145099 -179.67003177 220.46474596 -182.15374756 218.96060181 C-183.33402989 218.24227532 -184.51122487 217.51884896 -185.68511963 216.79013062 C-187.31171463 215.7814523 -188.95054482 214.7925854 -190.58984375 213.8046875 C-191.51659912 213.23733887 -192.44335449 212.66999023 -193.39819336 212.08544922 C-197.11620942 210.53432794 -199.31390045 211.38171464 -202.96606445 212.72094727 C-203.592146 212.99994873 -204.21822754 213.2789502 -204.86328125 213.56640625 C-205.57637451 213.88254883 -206.28946777 214.19869141 -207.02416992 214.52441406 C-208.15689331 215.0382666 -208.15689331 215.0382666 -209.3125 215.5625 C-210.11083252 215.92182617 -210.90916504 216.28115234 -211.73168945 216.65136719 C-219.59866004 220.22194744 -227.3225115 224.0407496 -235 228 C-236.24595947 228.64146973 -236.24595947 228.64146973 -237.51708984 229.29589844 C-273.49816642 247.35867381 -273.49816642 247.35867381 -308 268 C-312.60029339 267.62735624 -316.66548167 266.16455263 -320.97265625 264.56640625 C-321.61818954 264.32840805 -322.26372284 264.09040985 -322.92881775 263.84519958 C-324.97525908 263.08926893 -327.01885064 262.32594194 -329.0625 261.5625 C-330.43797581 261.05356261 -331.81362543 260.54509472 -333.18945312 260.03710938 C-343.1872021 256.33722767 -343.1872021 256.33722767 -346.80566406 254.8359375 C-348.91253902 253.87253657 -348.91253902 253.87253657 -350.94921875 254.05859375 C-354.05810599 255.48572103 -356.35847906 257.73444518 -358.8125 260.0625 C-359.61578735 260.81285522 -359.61578735 260.81285522 -360.43530273 261.57836914 C-363.88642418 264.84023048 -367.11462378 268.21132154 -370.16796875 271.8515625 C-372.03829415 274.04490785 -373.98115809 276.16057331 -375.94335938 278.27172852 C-380.75316008 283.44816989 -385.34376721 288.74030409 -389.7734375 294.25 C-392.03309195 297.04087146 -394.35748571 299.76773569 -396.6875 302.5 C-426.37800173 338.11940997 -455.79389358 381.45689303 -472.09765625 425.015625 C-473 427 -473 427 -475 428 C-462.74898187 385.22890162 -443.32977742 344.18561505 -419 307 C-418.55382324 306.31292969 -418.10764648 305.62585938 -417.64794922 304.91796875 C-412.74899474 297.38392902 -407.67221788 290.0477633 -402.21484375 282.90234375 C-400.70926293 280.92942215 -399.22286487 278.94174468 -397.75390625 276.94140625 C-392.84585978 270.26408133 -387.61420554 264.08893616 -382 258 C-380.24682249 256.0203704 -378.50836123 254.03222588 -376.79785156 252.015625 C-375 250 -375 250 -373.24902344 248.42529297 C-366.76754853 242.24332175 -366.0893761 234.70168472 -364.875 226.25 C-364.63667862 224.73847387 -364.39542859 223.22740681 -364.15136719 221.71679688 C-363.65718549 218.64297694 -363.17581959 215.56757853 -362.70410156 212.49023438 C-361.66947456 205.80589078 -360.45666195 199.15514229 -359.25 192.5 C-358.95198486 190.82212402 -358.95198486 190.82212402 -358.64794922 189.11035156 C-357.51201528 182.72303494 -356.30302802 176.35536826 -355 170 C-361.36126591 169.56178077 -366.81746493 169.5571799 -372.26025391 173.15527344 C-375.5158855 176.00221179 -378.41013094 179.17581388 -381.3125 182.375 C-382.32576072 183.4364803 -383.34202999 184.49509709 -384.36132812 185.55078125 C-389.87966342 191.32320972 -395.04252985 197.33580599 -400.02099609 203.57983398 C-402.03248857 206.03973097 -404.14195002 208.36756099 -406.3125 210.6875 C-411.91628217 216.83105103 -416.74454971 223.53855258 -421.67529297 230.22167969 C-423.30536078 232.40992405 -424.98924719 234.55187813 -426.6875 236.6875 C-471.51661291 294.17172134 -503.80574457 367.78787006 -518.81054688 439.0690918 C-519.4983953 442.27891129 -520.14344154 444.2151623 -522 447 C-522.19665376 440.8826633 -521.49078481 435.41727494 -520.25 429.4375 C-519.13775974 423.89674252 -518.03142004 418.36578688 -517.16015625 412.78125 C-503.30168087 324.38842121 -464.2784281 239.32174223 -401.375 165.25 C-400.84841797 164.63560059 -400.32183594 164.02120117 -399.77929688 163.38818359 C-396.53411214 159.64288477 -393.16011849 156.09077499 -389.61230469 152.63037109 C-387.94438285 150.94375965 -386.40568513 149.18635752 -384.875 147.375 C-377.88469885 139.28013659 -370.15646739 131.6386609 -362 124.72265625 C-359.56610869 122.62627721 -357.22865575 120.4360262 -354.875 118.25 C-349.08147725 112.96790547 -342.97800498 108.16261822 -336.77197266 103.37792969 C-335.06715286 102.05221972 -333.38055628 100.70688029 -331.69921875 99.3515625 C-313.2341783 84.50347026 -293.36582653 72.02980629 -273 60 C-272.19546387 59.52159668 -271.39092773 59.04319336 -270.56201172 58.55029297 C-217.01807438 26.8477941 -153.74521578 6.92932281 -92 0 C-91.30680664 -0.09023437 -90.61361328 -0.18046875 -89.89941406 -0.2734375 C-60.41616233 -4.08603799 -29.51083614 -2.95530548 0 0 Z " fill="#03172B" transform="translate(751,152)"/>
<path d="M0 0 C-0.23074219 0.91136719 -0.46148438 1.82273437 -0.69921875 2.76171875 C-2.6954623 10.68119119 -4.6259629 18.61320031 -6.5 26.5625 C-11.51771 47.7588256 -11.51771 47.7588256 -14.42138672 56.12475586 C-15.9982224 60.83641651 -17.15604171 65.58295343 -18.25 70.42578125 C-21.19303636 83.09621572 -24.59343036 95.63530777 -28 108.1875 C-28.60964618 110.44458823 -29.2190221 112.70174947 -29.828125 114.95898438 C-32.45352042 124.6776008 -35.09424491 134.3919681 -37.78125 144.09375 C-38.06718018 145.12830574 -38.06718018 145.12830574 -38.35888672 146.1837616 C-39.67480492 150.91364679 -41.07468304 155.61482904 -42.5 160.3125 C-44.66296682 167.52689558 -46.42323811 174.80884398 -48.12939453 182.14306641 C-49.78403209 189.21288144 -51.66962348 196.19385319 -53.64453125 203.1796875 C-55.16097793 208.54557574 -56.61489189 213.92768788 -58.0625 219.3125 C-58.34883301 220.37670166 -58.63516602 221.44090332 -58.93017578 222.53735352 C-60.87490107 229.77842772 -62.8050257 237.02331117 -64.73046875 244.26953125 C-65.73671473 248.05475785 -66.74330398 251.83989307 -67.75 255.625 C-68.00567749 256.58676147 -68.26135498 257.54852295 -68.52478027 258.53942871 C-72.43343373 273.23378506 -76.43772958 287.89939545 -80.50299072 302.55111694 C-83.8573409 314.65386129 -87.03642118 326.78566466 -89.98364258 338.99438477 C-90.23911865 340.04682373 -90.49459473 341.0992627 -90.7578125 342.18359375 C-90.9758252 343.09681396 -91.19383789 344.01003418 -91.41845703 344.95092773 C-92 347 -92 347 -93 348 C-97.82956643 348.83541743 -102.60892884 349.19783751 -107.5 349.4375 C-127.03837573 350.50490196 -146.49321564 352.62826518 -165.94775391 354.67895508 C-167.19539772 354.80937447 -167.19539772 354.80937447 -168.46824646 354.94242859 C-170.04172261 355.10695675 -171.61502701 355.27313875 -173.18812561 355.4412384 C-176.48860321 355.78521688 -179.67632243 356 -183 356 C-181.25752108 347.786753 -179.14084761 339.67882665 -177 331.5625 C-176.79457581 330.78165039 -176.58915161 330.00080078 -176.37750244 329.19628906 C-170.92341989 308.48745952 -165.25365281 287.83627124 -159.59765625 267.18188477 C-154.9775233 250.30526011 -150.4181111 233.41396535 -145.93096924 216.50144958 C-145.26826747 214.00897536 -144.60338625 211.51716142 -143.93572998 209.02601624 C-143.75737547 208.35977737 -143.57902096 207.69353851 -143.39526176 207.0071106 C-142.89659182 205.14506683 -142.39715754 203.28322781 -141.89767456 201.42140198 C-140.50546301 196.11511887 -139.25103856 190.77847233 -138 185.4375 C-135.89535974 176.5486395 -133.65854585 167.7419243 -131 159 C-137.40028259 167.28429061 -143.73294046 175.61418368 -150 184 C-150.68320312 184.9075 -151.36640625 185.815 -152.0703125 186.75 C-156.11796763 192.12695884 -160.12848857 197.52869375 -164.11254883 202.95288086 C-169.46037843 210.23379883 -174.86338076 217.45406768 -180.3984375 224.59375 C-183.54115417 228.67952662 -186.57813319 232.84256526 -189.625 237 C-194.69310559 243.91535253 -199.84671731 250.75791927 -205.0625 257.5625 C-210.53839082 264.71210676 -215.89004677 271.93328606 -221.13256836 279.25537109 C-225.83693478 285.81288479 -230.66131658 292.27607426 -235.53515625 298.70849609 C-238.48934575 302.61433467 -241.3985134 306.5338448 -244.18359375 310.5625 C-244.67327637 311.26221924 -245.16295898 311.96193848 -245.66748047 312.68286133 C-246.56815205 313.97712356 -247.45502636 315.28114867 -248.32470703 316.59643555 C-250.27149844 319.37526628 -251.38229119 320.85447599 -254.74829102 321.64746094 C-258.00556076 322.00060288 -261.21774447 322.20725815 -264.4921875 322.31640625 C-265.69101562 322.35830078 -266.88984375 322.40019531 -268.125 322.44335938 C-269.98125 322.50233398 -269.98125 322.50233398 -271.875 322.5625 C-273.13570312 322.60568359 -274.39640625 322.64886719 -275.6953125 322.69335938 C-278.79677423 322.79909102 -281.89831145 322.90118571 -285 323 C-285.68834375 319.70850926 -286.37554471 316.41678079 -287.0625 313.125 C-287.28220459 312.07304443 -287.50190918 311.02108887 -287.72827148 309.93725586 C-289.0829758 303.43887215 -290.42375129 296.93783106 -291.75 290.43359375 C-295.70033263 270.90901235 -295.70033263 270.90901235 -300.17578125 251.5 C-300.80989622 248.80726534 -301.37904164 246.1287475 -301.90917969 243.4152832 C-302.94470875 238.20764359 -304.09352909 233.03114205 -305.27734375 227.85546875 C-305.48935928 226.92382401 -305.70137482 225.99217926 -305.91981506 225.03230286 C-306.59115181 222.08375459 -307.2643134 219.13562641 -307.9375 216.1875 C-308.38488172 214.22333373 -308.83214822 212.25914121 -309.27929688 210.29492188 C-311.60263936 200.07791904 -311.60263936 200.07791904 -313.96069336 189.86889648 C-314.22889893 188.71848877 -314.49710449 187.56808105 -314.7734375 186.3828125 C-314.99821777 185.42648926 -315.22299805 184.47016602 -315.45458984 183.48486328 C-316.14649661 180.33256828 -316.62737711 177.20455684 -317 174 C-317.66 174 -318.32 174 -319 174 C-319.12117187 174.99257813 -319.24234375 175.98515625 -319.3671875 177.0078125 C-319.94948782 181.05956766 -320.99062395 184.94741408 -322.125 188.875 C-322.57834671 190.47129122 -323.03145823 192.06764924 -323.484375 193.6640625 C-323.72865234 194.52032227 -323.97292969 195.37658203 -324.22460938 196.25878906 C-325.04405781 199.15575601 -325.84413627 202.05757752 -326.640625 204.9609375 C-327.07157471 206.52352295 -327.07157471 206.52352295 -327.51123047 208.11767578 C-328.05993439 210.10746416 -328.60612608 212.09794836 -329.14892578 214.08935547 C-331.0327298 220.87807313 -333.12735479 227.58641513 -335.28125 234.29296875 C-339.08881015 246.16075387 -342.62788573 258.10014607 -346.125 270.0625 C-346.77520385 272.28014158 -347.42551513 274.49775167 -348.07592773 276.71533203 C-354.99303156 300.32052671 -361.85370636 323.94318399 -368.59716797 347.59863281 C-368.86258896 348.52946686 -369.12800995 349.4603009 -369.401474 350.41934204 C-369.90342251 352.18084769 -370.40474878 353.94253083 -370.9052887 355.70443726 C-372.55201458 361.4854556 -374.25922789 367.24661922 -376 373 C-390.18364314 375.05538919 -404.36146249 376.52632294 -418.64099121 377.68365479 C-429.4682942 378.56360299 -440.24262022 379.63086448 -451.01123047 381.0859375 C-457.04625696 381.87630182 -462.91442069 382.15574468 -469 382 C-467.10141249 374.19013461 -465.03205374 366.45609393 -462.75 358.75 C-462.13131702 356.64849443 -461.51283327 354.54693019 -460.89453125 352.4453125 C-460.42394287 350.84864746 -460.42394287 350.84864746 -459.94384766 349.21972656 C-459.0185977 346.06344192 -458.10654263 342.90366742 -457.19921875 339.7421875 C-454.3467142 329.82416381 -451.39153244 319.97843855 -448.05175781 310.21313477 C-446.57802185 305.86423634 -445.30919545 301.51896571 -444.1875 297.0625 C-442.3679351 289.95861536 -440.04775197 283.06611337 -437.6875 276.125 C-433.95648902 265.12608357 -430.67811696 254.06471519 -427.6171875 242.86328125 C-425.9450192 236.74698106 -424.13106501 230.67929971 -422.28826904 224.61268616 C-420.53775126 218.82990402 -418.84287094 213.03334538 -417.1875 207.22265625 C-416.9298436 206.31949173 -416.67218719 205.41632721 -416.40672302 204.48579407 C-413.84057198 195.47188088 -411.32747229 186.44339573 -408.81976318 177.41308594 C-405.14606847 164.19050907 -401.46072413 150.97359584 -397.58227539 137.80932617 C-395.00413243 129.05391222 -392.50108701 120.27766034 -390 111.5 C-386.91351606 100.66949294 -383.79768214 89.84888122 -380.62426758 79.04345703 C-377.67106085 68.9473068 -374.84239689 58.81602505 -372.01928711 48.68286133 C-371.74075897 47.68626747 -371.74075897 47.68626747 -371.456604 46.66954041 C-370.95068783 44.85926342 -370.44635832 43.04854322 -369.94213867 41.23779297 C-369.03750398 38.12888776 -368.04579035 35.06397716 -367 32 C-356.44564052 30.81837062 -345.92882408 29.77978684 -335.3203125 29.24609375 C-332.14488821 29.08357898 -332.14488821 29.08357898 -329.65356445 28.51147461 C-326.82517754 27.96630297 -324.09767659 27.74162982 -321.22265625 27.5703125 C-319.51396362 27.46275635 -319.51396362 27.46275635 -317.77075195 27.35302734 C-316.54702881 27.27777832 -315.32330566 27.2025293 -314.0625 27.125 C-302.03010776 26.35068727 -290.06172656 25.27954173 -278.07641602 23.96533203 C-271.35048016 23.24791118 -264.76481503 22.80785635 -258 23 C-253.24635664 46.65019279 -248.53263312 70.30626932 -244 94 C-243.84917969 94.78804016 -243.69835937 95.57608032 -243.54296875 96.38800049 C-241.50937562 107.01553958 -239.48416677 117.64464213 -237.46838379 128.27557373 C-236.51993653 133.27413132 -235.56463074 138.27129721 -234.60180664 143.2671051 C-234.03052272 146.23525765 -233.46352282 149.20421799 -232.89746094 152.17337036 C-232.63573316 153.54082966 -232.37210956 154.90792769 -232.10644531 156.27462769 C-231.74299112 158.14565177 -231.38694414 160.01811018 -231.03125 161.890625 C-230.83080078 162.93250977 -230.63035156 163.97439453 -230.42382812 165.04785156 C-229.98950773 168.07308326 -229.92486975 170.94811808 -230 174 C-229.34 174 -228.68 174 -228 174 C-227.77828125 173.32195312 -227.5565625 172.64390625 -227.328125 171.9453125 C-225.61827749 168.15347419 -223.28672622 165.15216503 -220.75 161.875 C-219.65934901 160.44332293 -218.56953981 159.01100428 -217.48046875 157.578125 C-216.90989746 156.82982422 -216.33932617 156.08152344 -215.75146484 155.31054688 C-212.81900527 151.442022 -209.93970439 147.53470745 -207.0625 143.625 C-206.47710449 142.83037354 -205.89170898 142.03574707 -205.28857422 141.21704102 C-200.73642043 135.02678737 -196.24087117 128.79683362 -191.75415039 122.55908203 C-187.74353077 116.99653495 -183.64536285 111.50541014 -179.51464844 106.03173828 C-175.26331594 100.38417576 -171.12242677 94.66113915 -166.99609375 88.921875 C-163.0359252 83.41902796 -159.02988136 77.95196288 -155 72.5 C-147.70882199 62.63066467 -140.52335598 52.68689011 -133.36328125 42.72216797 C-127.41594361 34.44569187 -121.44687799 26.18573596 -115.375 18 C-114.62947876 16.98462158 -114.62947876 16.98462158 -113.86889648 15.94873047 C-108.94390648 9.35076397 -108.94390648 9.35076397 -104.90013123 8.62109375 C-104.09060501 8.56050781 -103.2810788 8.49992188 -102.44702148 8.4375 C-101.52432968 8.36402344 -100.60163788 8.29054688 -99.65098572 8.21484375 C-98.65112137 8.14394531 -97.65125702 8.07304688 -96.62109375 8 C-95.58042252 7.91878906 -94.53975128 7.83757813 -93.46754456 7.75390625 C-90.12476823 7.49437126 -86.78125352 7.24659731 -83.4375 7 C-79.08169735 6.6709449 -74.72629045 6.33697608 -70.37109375 6 C-69.30397659 5.91777191 -68.23685944 5.83554382 -67.1374054 5.75082397 C-58.75153088 5.09104534 -50.40547612 4.21383843 -42.05184937 3.23498535 C-36.02133084 2.54434814 -29.97821758 1.96787964 -23.9375 1.375 C-22.94617065 1.27445313 -22.94617065 1.27445313 -21.93481445 1.171875 C-14.59242514 0.42734509 -7.38185806 -0.1778761 0 0 Z " fill="#02172B" transform="translate(634,586)"/>
<path d="M0 0 C1.01852051 0.28085449 1.01852051 0.28085449 2.05761719 0.56738281 C28.46613154 8.0444145 48.62139 23.98290966 62.0625 47.8125 C67.00114026 56.94809302 69.66304129 66.92825231 72 77 C72.19650146 77.84062988 72.39300293 78.68125977 72.59545898 79.54736328 C74.2466495 87.46338645 74.35902686 95.31362767 74.3125 103.375 C74.30827026 104.43495682 74.30827026 104.43495682 74.30395508 105.5163269 C74.16573338 128.66487463 69.10814009 149.81450812 63 172 C62.74395996 172.94085449 62.48791992 173.88170898 62.22412109 174.85107422 C59.75880654 183.85875039 56.8093541 192.45879863 53 201 C52.46818544 202.2426924 51.93834888 203.48623256 51.41015625 204.73046875 C28.48589571 258.44930047 -8.88988131 302.56579239 -64 325 C-72.88815637 328.3432274 -81.91182999 331.25324691 -91 334 C-91.79277344 334.23976563 -92.58554687 334.47953125 -93.40234375 334.7265625 C-109.41631884 339.43830936 -126.27108273 340.77441428 -142.8125 342.53515625 C-146.67722458 342.95213041 -150.52356411 343.47369149 -154.375 344 C-161.52205613 344.94598725 -168.68287083 345.40940559 -175.875 345.875 C-188.24605002 346.6858287 -200.50195466 348.03235275 -212.80444336 349.53198242 C-214.22378768 349.70498012 -215.64313978 349.87791407 -217.0625 350.05078125 C-218.09178368 350.17627602 -218.09178368 350.17627602 -219.14186096 350.30430603 C-227.41487233 351.30473337 -235.70483005 352.09053156 -244.00537109 352.82080078 C-245.80283088 352.98228615 -247.5988089 353.16006487 -249.39453125 353.33984375 C-254.96176681 353.89580571 -260.40391284 354.09173913 -266 354 C-264.54629789 345.83028836 -262.38469083 337.91631602 -260.125 329.9375 C-257.66139161 321.16348962 -255.29940996 312.38962565 -253.29956055 303.49707031 C-252.10385415 298.24854151 -250.56438263 293.1531901 -248.9296875 288.02734375 C-248.03605624 285.11741002 -247.27702683 282.20846222 -246.5625 279.25 C-245.38566428 274.38276098 -244.00784705 269.60445235 -242.5625 264.8125 C-240.84699203 259.09903486 -239.32382426 253.37909919 -238 247.5625 C-236.722512 241.95443611 -235.32206945 236.40775934 -233.75 230.875 C-230.97692006 221.10330002 -228.46189341 211.26656845 -225.94238281 201.42724609 C-222.89427936 189.53477055 -219.78220825 177.66512662 -216.41333008 165.85888672 C-213.63817633 156.12633892 -211.02665672 146.3824938 -208.77368164 136.51513672 C-207.70562931 131.8562272 -206.54029861 127.23477934 -205.29589844 122.61962891 C-202.75168067 113.13234633 -200.30663813 103.61961184 -197.85368156 94.1084137 C-196.12507921 87.40986061 -194.39034863 80.71289096 -192.65697384 74.01557159 C-191.14027194 68.15397956 -189.62559274 62.29187806 -188.11499023 56.42871094 C-186.64335913 50.71730497 -185.16631963 45.00732226 -183.68560982 39.29826355 C-183.12509067 37.13309788 -182.56653754 34.96742222 -182.01002312 32.80122375 C-181.23309652 29.77823415 -180.44925994 26.75711476 -179.66381836 23.73632812 C-179.43776917 22.84998688 -179.21171997 21.96364563 -178.9788208 21.05044556 C-177.69251397 16.1367815 -176.1280458 11.61428451 -174 7 C-133.35902752 2.81717632 -133.35902752 2.81717632 -115.83251953 1.59619141 C-111.98781382 1.32582473 -108.20351586 1.02926228 -104.38671875 0.48046875 C-99.43864293 -0.2215074 -94.48502601 -0.38428456 -89.49609375 -0.60546875 C-88.34947266 -0.66154297 -88.34947266 -0.66154297 -87.1796875 -0.71875 C-86.49632324 -0.74904297 -85.81295898 -0.77933594 -85.10888672 -0.81054688 C-82.69012188 -1.02783809 -80.38043828 -1.52223916 -78 -2 C-52.46136619 -4.97080074 -24.98441152 -7.08064922 0 0 Z " fill="#03172C" transform="translate(848,575)"/>
<path d="M0 0 C3.58422647 0.63098426 7.17779911 1.19711942 10.77246094 1.76464844 C32.5745307 5.24579385 32.5745307 5.24579385 40.96777344 7.52246094 C38.46220845 10.27267706 35.64838748 12.13497299 32.53027344 14.14746094 C20.57635777 22.00158069 20.57635777 22.00158069 9.96777344 31.52246094 C10.47002441 31.88895752 10.97227539 32.2554541 11.48974609 32.63305664 C21.5626801 39.99316376 31.54554339 47.43049755 41.30273438 55.20458984 C42.99692957 56.54553789 44.70288888 57.86996486 46.41308594 59.19042969 C58.52097633 68.55831856 70.1809515 78.51346293 81.27636719 89.06542969 C83.87006147 91.53896095 83.87006147 91.53896095 86.62792969 93.38574219 C89.19926989 95.3217596 90.61372641 96.59262398 91.96777344 99.52246094 C91.72878581 104.58783293 90.33296173 109.10437409 88.79003906 113.91308594 C87.60008692 117.68927611 86.56904332 121.50555891 85.52050781 125.32299805 C84.63858747 128.52045698 83.73461829 131.71107346 82.82714844 134.90136719 C81.25855454 140.44652747 79.76176847 146.00835009 78.28515625 151.57861328 C75.79102978 160.98625901 73.18262249 170.31873889 70.17773438 179.57641602 C67.90015865 186.61682253 65.8740325 193.72156446 63.88354492 200.84790039 C63.52885132 202.11186646 63.52885132 202.11186646 63.16699219 203.40136719 C62.95905029 204.14974854 62.7511084 204.89812988 62.53686523 205.66918945 C61.96777344 207.52246094 61.96777344 207.52246094 60.96777344 209.52246094 C52.31953756 212.7167287 43.01886044 214.5252418 34.04492188 216.59594727 C26.30438726 218.39258827 18.63841855 220.45164671 10.96777344 222.52246094 C8.7022585 223.1309438 6.4366365 223.73902818 4.17089844 224.34667969 C3.04498291 224.64864258 1.91906738 224.95060547 0.7590332 225.26171875 C-13.40241688 229.05372648 -27.58683456 232.74812732 -41.79101562 236.37670898 C-42.48544769 236.5544133 -43.17987976 236.73211761 -43.89535522 236.91520691 C-45.26352526 237.26485708 -46.63203043 237.61319875 -48.00088501 237.9601593 C-51.42285764 238.83206663 -54.82911575 239.73990787 -58.22412109 240.71191406 C-58.90160904 240.90279602 -59.57909698 241.09367798 -60.27711487 241.29034424 C-62.13544397 241.81675253 -63.99034159 242.35523209 -65.8449707 242.89453125 C-71.6765085 244.0434179 -74.96383189 242.20868246 -79.90722656 239.16308594 C-80.46453964 238.82253174 -81.02185272 238.48197754 -81.59605408 238.13110352 C-83.4125776 237.01864804 -85.22236985 235.89572391 -87.03222656 234.77246094 C-88.29819768 233.99416297 -89.56455917 233.21649962 -90.83129883 232.43945312 C-93.99039924 230.49908621 -97.14407228 228.55010736 -100.29571533 226.59765625 C-102.7981542 225.04822168 -105.30399501 223.50431695 -107.80957031 221.95996094 C-112.05847671 219.33755504 -116.30140758 216.70566136 -120.54199219 214.06982422 C-124.76526002 211.44560152 -128.99240851 208.82765249 -133.21972656 206.20996094 C-134.074375 205.68039795 -134.92902344 205.15083496 -135.80957031 204.60522461 C-140.65333969 201.60604059 -145.50346121 198.61754219 -150.36035156 195.63964844 C-164.33783712 187.06691506 -178.23237525 178.37851866 -192.03222656 169.52246094 C-191.34535337 162.40212913 -189.70918982 155.63623864 -187.96972656 148.70605469 C-187.66235565 147.46787994 -187.35498474 146.2297052 -187.03829956 144.95401001 C-186.04396464 140.95405163 -185.03865069 136.95689161 -184.03222656 132.95996094 C-183.68897035 131.5939877 -183.345729 130.22801072 -183.00250244 128.86203003 C-175.10336161 97.45689018 -175.10336161 97.45689018 -171.44287109 84.48635864 C-170.92281028 82.64027905 -170.41674992 80.79027324 -169.91113281 78.94018555 C-169.59789062 77.86518799 -169.28464844 76.79019043 -168.96191406 75.68261719 C-168.70651855 74.79195557 -168.45112305 73.90129395 -168.18798828 72.98364258 C-165.59232991 67.45621715 -161.08427469 64.73022238 -155.79003906 62.06933594 C-155.19384766 61.76776077 -154.59765625 61.46618561 -153.98339844 61.1554718 C-152.04719762 60.182161 -150.1032669 59.2259307 -148.15722656 58.27246094 C-147.48850525 57.9416452 -146.81978394 57.61082947 -146.13079834 57.26998901 C-124.20267546 46.44183894 -100.8835098 37.12624531 -77.03222656 31.52246094 C-84.14089025 32.19630302 -91.0383231 33.40931395 -98.03222656 34.83496094 C-99.0415625 35.03541016 -100.05089844 35.23585937 -101.09082031 35.44238281 C-104.41018511 36.11164301 -107.72177666 36.81039585 -111.03222656 37.52246094 C-111.66956726 37.65842682 -112.30690796 37.7943927 -112.96356201 37.93447876 C-123.64743385 40.23991859 -133.96729266 43.26438792 -144.31103516 46.78637695 C-146.68801934 47.59544202 -149.06870502 48.39278377 -151.45019531 49.18847656 C-152.99078315 49.70669355 -154.5311561 50.22554989 -156.07128906 50.74511719 C-156.76928619 50.97957047 -157.46728333 51.21402374 -158.18643188 51.45558167 C-161.44744702 52.56870596 -164.60883334 53.75651631 -167.74926758 55.17700195 C-175.9789711 58.54979113 -185.56723127 56.07344495 -194.12380981 54.92663574 C-211.05877776 52.67090857 -227.97508114 51.40481984 -245.03222656 50.52246094 C-243.12152308 46.13951787 -240.3557935 44.63828202 -236.21972656 42.52246094 C-235.47964355 42.14001221 -234.73956055 41.75756348 -233.97705078 41.36352539 C-201.85379902 25.20551048 -167.18206511 14.05216689 -132.17578125 6.23632812 C-129.71798815 5.67818996 -127.28434721 5.08130805 -124.84863281 4.43652344 C-86.01865839 -4.86359326 -39.3858172 -6.98288908 0 0 Z " fill="#FDFCFD" transform="translate(756.0322265625,180.4775390625)"/>
<path d="M0 0 C-0.47121062 7.43578483 -1.95684552 14.22566006 -4 21.375 C-7.08251348 32.48236725 -9.96355439 43.62779267 -12.75 54.8125 C-12.94013672 55.5728656 -13.13027344 56.3332312 -13.32617188 57.11663818 C-15.41492415 65.47187312 -17.44724321 73.83525195 -19.36523438 82.23168945 C-21.4491981 91.32017588 -23.78659528 100.3377372 -26.3125 109.3125 C-29.73924874 121.48943069 -32.86001238 133.74663415 -36 146 C-36.1944873 146.75458496 -36.38897461 147.50916992 -36.58935547 148.28662109 C-38.32595866 155.03141847 -39.95829532 161.79393958 -41.515625 168.58203125 C-44.74445913 182.63969227 -48.16150877 196.60093797 -51.94604492 210.52246094 C-54.3009163 219.23497519 -56.4710746 227.97626857 -58.55786133 236.75610352 C-68.14110421 276.99459648 -80.35606891 317.2337446 -117.29760742 340.63891602 C-145.21215521 357.69105568 -177.53840671 363.44347167 -209.875 363.5 C-210.66420837 363.50449158 -211.45341675 363.50898315 -212.26654053 363.51361084 C-223.18945919 363.53898447 -233.32960462 362.36838949 -244 360 C-245.50530273 359.68095703 -245.50530273 359.68095703 -247.04101562 359.35546875 C-252.9450416 358.05179979 -258.21938636 355.64018663 -263.625 353 C-264.33720703 352.65557861 -265.04941406 352.31115723 -265.78320312 351.95629883 C-270.87695933 349.36912202 -270.87695933 349.36912202 -272 346 C-271.07885742 343.7578125 -271.07885742 343.7578125 -269.60546875 341.125 C-269.06744629 340.15022705 -268.52942383 339.1754541 -267.97509766 338.17114258 C-267.38519043 337.12466553 -266.7952832 336.07818848 -266.1875 335 C-264.9691747 332.7960577 -263.75173485 330.59162571 -262.53515625 328.38671875 C-261.92945801 327.29536621 -261.32375977 326.20401367 -260.69970703 325.07958984 C-258.45726013 321.01664455 -256.27914159 316.9227753 -254.125 312.8125 C-253.55193115 311.72606201 -253.55193115 311.72606201 -252.96728516 310.61767578 C-250.66466086 306.23574005 -248.40374773 301.83408616 -246.16882324 297.41734314 C-244.81074515 294.73562004 -243.44556416 292.05753658 -242.08026123 289.37948608 C-241.40456382 288.04869649 -240.73253062 286.71603975 -240.06427002 285.38150024 C-239.12579566 283.50757432 -238.17548966 281.64009331 -237.22265625 279.7734375 C-236.67359619 278.68466309 -236.12453613 277.59588867 -235.55883789 276.47412109 C-234 274 -234 274 -231 273 C-228.19227825 273.87959748 -225.49088142 274.82081484 -222.75 275.875 C-207.16057689 281.83326119 -190.64828963 281.81377427 -175 276 C-164.44896942 271.28357465 -157.85671746 263.7642823 -153.26049805 253.30786133 C-150.79717834 246.84349589 -149.21461284 240.14365599 -147.5625 233.4375 C-147.16941793 231.87484003 -146.77569188 230.31234193 -146.38134766 228.75 C-143.84479088 218.64877506 -141.4570488 208.51571091 -139.16601562 198.35595703 C-137.45158417 190.79805361 -135.54456197 183.30429051 -133.5625 175.8125 C-130.79541206 165.34260256 -128.33604237 154.82430328 -125.99539185 144.25332642 C-124.15576416 135.95658388 -122.20438918 127.70815972 -120 119.5 C-117.71564653 110.98142182 -115.71425079 102.42428559 -113.8125 93.8125 C-110.68848199 79.68182989 -107.19590851 65.65536248 -103.64816284 51.6257019 C-100.46321014 39.01963992 -97.42718556 26.41680565 -94.8046875 13.6796875 C-94 10 -94 10 -93 8 C-91.27734375 7.56103516 -91.27734375 7.56103516 -88.9375 7.2890625 C-88.01960693 7.18062012 -87.10171387 7.07217773 -86.15600586 6.96044922 C-85.11452393 6.84975098 -84.07304199 6.73905273 -83 6.625 C-81.8972876 6.5027002 -80.7945752 6.38040039 -79.65844727 6.25439453 C-67.10424647 4.92022725 -54.51966014 3.90435955 -41.9375 2.875 C-40.88409424 2.78873352 -39.83068848 2.70246704 -38.74536133 2.61358643 C-6.62863303 0 -6.62863303 0 0 0 Z " fill="#4DAE19" transform="translate(1153,534)"/>
<path d="M0 0 C0.70189453 0.00451172 1.40378906 0.00902344 2.12695312 0.01367188 C3.85550538 0.02543073 5.58401365 0.04336546 7.3125 0.0625 C4.14136821 4.45757739 0.58106733 7.3564148 -3.75 10.5 C-4.44899414 11.0151416 -5.14798828 11.5302832 -5.86816406 12.06103516 C-7.36669615 13.16460786 -8.86724713 14.26544347 -10.36962891 15.36376953 C-12.67512754 17.05343242 -14.96970521 18.75694446 -17.26171875 20.46484375 C-54.01151598 47.80291892 -92.48235039 72.17372876 -132.6875 94.0625 C-134.09274229 94.83670552 -135.49773539 95.61136372 -136.90234375 96.38671875 C-147.92414792 102.42447997 -159.29999521 107.75748458 -170.6875 113.0625 C-171.78368652 113.57474121 -172.87987305 114.08698242 -174.00927734 114.61474609 C-193.56335149 123.70412736 -213.44845347 131.63828206 -233.6875 139.0625 C-234.41529663 139.33016174 -235.14309326 139.59782349 -235.89294434 139.87359619 C-254.61265659 146.75050986 -273.33689405 153.16152847 -292.6875 158.0625 C-293.71101563 158.32224609 -294.73453125 158.58199219 -295.7890625 158.84960938 C-324.22882716 165.99483561 -352.86140105 171.47463444 -381.9375 175.25 C-383.22213135 175.41701416 -384.5067627 175.58402832 -385.83032227 175.75610352 C-397.90441087 177.28433973 -409.79065943 178.21878482 -421.96484375 178.23046875 C-423.21084854 178.23379715 -424.45685333 178.23712555 -425.74061584 178.24055481 C-428.37191401 178.24559197 -431.0032185 178.24796413 -433.63452148 178.24780273 C-437.55529095 178.24996162 -441.47576555 178.26807556 -445.39648438 178.28710938 C-468.29142313 178.33954156 -491.25699467 177.61505003 -513.875 173.8125 C-514.85294525 173.6529332 -514.85294525 173.6529332 -515.85064697 173.49014282 C-542.44137666 169.14654669 -568.90900145 162.79418621 -593.6875 152.0625 C-594.45449219 151.73709229 -595.22148438 151.41168457 -596.01171875 151.07641602 C-639.68649693 132.49751188 -678.12493898 104.96564964 -705.6875 66.0625 C-702.33241156 67.52516777 -700.12244778 69.40324073 -697.5 71.9375 C-677.50456549 90.17894903 -652.47637441 102.54692907 -627.875 113.3125 C-626.93237305 113.72508057 -625.98974609 114.13766113 -625.01855469 114.56274414 C-614.60761542 119.05439894 -604.1479732 122.65887839 -593.1875 125.5625 C-592.04313477 125.86655762 -590.89876953 126.17061523 -589.71972656 126.48388672 C-575.73867386 130.15249301 -561.70707879 132.95974836 -547.46472168 135.41131592 C-545.57378819 135.73728019 -543.68384337 136.068964 -541.79394531 136.40087891 C-524.37657166 139.31620329 -506.98519093 139.26413401 -489.375 139.25 C-488.22097687 139.25006042 -487.06695374 139.25012085 -485.87796021 139.25018311 C-469.95503538 139.23829878 -454.176567 139.00863486 -438.32910156 137.34033203 C-435.69778763 137.06358201 -433.06519545 136.82291252 -430.4296875 136.58984375 C-421.20685219 135.74307774 -412.17969795 134.35642135 -403.09863281 132.53076172 C-400.31821519 131.99078187 -397.53152946 131.49570435 -394.7421875 131.00390625 C-328.70012708 119.30299743 -263.06594792 97.4409271 -203.6875 66.0625 C-202.75728027 65.57346191 -201.82706055 65.08442383 -200.86865234 64.58056641 C-173.01761507 49.89452855 -146.33547671 33.63038508 -120.19921875 16.09375 C-119.41595215 15.57039062 -118.63268555 15.04703125 -117.82568359 14.5078125 C-116.51582301 13.62240777 -115.21435479 12.72422022 -113.92822266 11.8046875 C-108.0383765 7.63435389 -102.11471154 7.88715463 -95.1484375 7.65625 C-81.4921166 7.11685024 -67.91649556 5.83544142 -54.3125 4.5625 C-49.45079676 4.11154639 -44.58879795 3.66392703 -39.7265625 3.21875 C-38.57826965 3.11296631 -37.42997681 3.00718262 -36.24688721 2.89819336 C-28.67246721 2.21092494 -21.10556062 1.66201349 -13.50927734 1.29101562 C-8.89231203 0.91712053 -4.72986696 -0.05741202 0 0 Z " fill="#369D23" transform="translate(884.6875,946.9375)"/>
<path d="M0 0 C0.33 0 0.66 0 1 0 C1 92.4 1 184.8 1 280 C-91.73 280 -184.46 280 -280 280 C-277.06805282 277.06805282 -273.93437033 277.74734902 -270 277.6875 C-214.06060305 275.71112986 -155.3372861 248.38612396 -113.07226562 212.72363281 C-111.55964108 211.46548846 -110.02978385 210.22797975 -108.49023438 209.00292969 C-101.88766376 203.72699978 -95.7804533 198.09290453 -89.83789062 192.09863281 C-88.37586839 190.62587477 -86.90342512 189.16414955 -85.4296875 187.703125 C-79.18459832 181.46671127 -73.50386663 174.902321 -68 168 C-67.10191652 166.93687138 -66.19835251 165.8783007 -65.28515625 164.828125 C-58.80374904 157.31014827 -53.32203736 149.36320156 -48 141 C-46.98292969 139.41058594 -46.98292969 139.41058594 -45.9453125 137.7890625 C-26.94077349 107.48865292 -11.27283078 73.46444329 -5 38 C-4.82919922 37.04158203 -4.65839844 36.08316406 -4.48242188 35.09570312 C-2.44690809 23.4571034 -0.47014137 11.82405535 0 0 Z " fill="#000000" transform="translate(1253,974)"/>
<path d="M0 0 C0.33 0 0.66 0 1 0 C1.07516846 0.64324219 1.15033691 1.28648437 1.2277832 1.94921875 C5.27757564 36.28215301 12.37517745 69.88801854 28 101 C28.63417732 102.30141915 29.26694882 103.60352412 29.8984375 104.90625 C41.79166703 129.2857397 56.22354781 152.50585656 74.69921875 172.48828125 C76.53135222 174.48838621 78.30132205 176.51609579 80.06640625 178.57421875 C84.43008358 183.57170022 89.07018161 188.29209178 93.75048828 192.99072266 C95.24073167 194.49067131 96.71991392 196.00099158 98.19921875 197.51171875 C103.76779204 203.13796639 109.42501749 208.03092053 116.00683594 212.45898438 C116.66458008 212.96751953 117.32232422 213.47605469 118 214 C118 214.66 118 215.32 118 216 C118.58015869 216.27763184 119.16031738 216.55526367 119.75805664 216.84130859 C121.91295469 217.95501284 123.86518206 219.17793476 125.87109375 220.5390625 C126.97022095 221.280354 126.97022095 221.280354 128.09155273 222.03662109 C128.86571533 222.56078613 129.63987793 223.08495117 130.4375 223.625 C141.33566278 230.94154011 152.35076868 237.92478158 164 244 C164.59151855 244.309375 165.18303711 244.61875 165.79248047 244.9375 C174.71230224 249.57752921 183.68086936 253.70512394 193.08935547 257.2734375 C195.06551437 258.02491321 197.03473165 258.79292657 199.00390625 259.5625 C224.53931736 269.45958821 252.65210217 275.21777744 280 277 C280 277.33 280 277.66 280 278 C187.6 278 95.2 278 0 278 C0 186.26 0 94.52 0 0 Z " fill="#000000" transform="translate(0,976)"/>
<path d="M0 0 C92.4 0 184.8 0 280 0 C280 0.33 280 0.66 280 1 C279.29617188 1.07516846 278.59234375 1.15033691 277.8671875 1.2277832 C264.46792335 2.67419528 251.18392292 4.14791063 238 7 C236.71222656 7.26296875 235.42445313 7.5259375 234.09765625 7.796875 C182.19419041 18.82338896 133.86855281 46.18457033 96 83 C95.21834473 83.75974121 94.43668945 84.51948242 93.63134766 85.30224609 C84.5685987 94.15146082 75.70144755 102.92431043 68 113 C67.1289557 114.08416858 66.25507506 115.16606232 65.37890625 116.24609375 C51.25853689 133.74044404 39.58905628 152.92137181 29.87304688 173.18017578 C29.07575882 174.84208439 28.26513 176.49757599 27.453125 178.15234375 C12.27814359 209.84847428 4.77460453 243.22005115 1 278 C0.67 278 0.34 278 0 278 C0 186.26 0 94.52 0 0 Z " fill="#000000" transform="translate(0,0)"/>
<path d="M0 0 C92.4 0 184.8 0 280 0 C280 92.4 280 184.8 280 280 C279.67 280 279.34 280 279 280 C278.94054199 279.3287207 278.88108398 278.65744141 278.81982422 277.96582031 C276.66569809 254.50449079 272.88654394 231.27213651 265 209 C264.55503174 207.71270996 264.55503174 207.71270996 264.10107422 206.39941406 C260.34819734 195.56524931 256.4151581 185.12634566 251 175 C250.34953585 173.69500629 249.70404425 172.38752684 249.0625 171.078125 C245.73701689 164.29160274 242.34977454 157.64390676 238.35546875 151.21875 C237.02341047 149.03832031 235.82117191 146.81972806 234.625 144.5625 C231.57596661 139.01968849 227.77320896 134.06367448 224 129 C222.68652507 127.16736502 221.37401839 125.33403568 220.0625 123.5 C205.60975941 103.68711679 187.9274718 84.07703688 168.53515625 68.984375 C166.77442172 67.60617294 165.0549281 66.17429082 163.37109375 64.703125 C144.47924296 48.20231513 121.86458482 36.53098514 99.24511719 26.046875 C97.43911834 25.20475636 95.64354979 24.34028724 93.8515625 23.46875 C86.23744051 19.81397144 78.26419881 17.2856114 70.23291016 14.72314453 C68.21175174 14.06857737 66.20496156 13.38366646 64.19921875 12.68359375 C43.49400371 5.70897538 21.65018765 3.15002482 0 1 C0 0.67 0 0.34 0 0 Z " fill="#010000" transform="translate(974,0)"/>
<path d="M0 0 C1.28737061 -0.009104 2.57474121 -0.01820801 3.90112305 -0.02758789 C17.34695714 0.01524716 28.73504976 2.400163 39.359375 11.07421875 C50.04517611 21.9355166 52.63525384 36.64391523 52.57836914 51.24633789 C51.67495 85.87177633 39.78815605 123.38792671 17.5 150.25 C16.76910156 151.13300781 16.03820312 152.01601563 15.28515625 152.92578125 C-0.84125498 171.60294294 -22.0422069 180.79625584 -46.30175781 183.03955078 C-48.69174723 183.26835697 -51.07553011 183.53625132 -53.4609375 183.80859375 C-63.19972068 184.89303938 -72.69391379 185.48274227 -82.5 185.25 C-80.49320327 174.50515395 -77.97233013 163.98666833 -75.125 153.4375 C-74.71998789 151.92358506 -74.315287 150.40958682 -73.91088867 148.89550781 C-71.5496416 140.07168414 -69.15084847 131.25854747 -66.6796875 122.46484375 C-63.57121585 111.39793565 -60.5650847 100.30024305 -57.625 89.1875 C-56.91943634 86.540892 -56.2112676 83.89507561 -55.5 81.25 C-55.20303223 80.14543457 -54.90606445 79.04086914 -54.60009766 77.90283203 C-53.72966089 74.67616259 -52.85465903 71.45083142 -51.97528076 68.22659302 C-51.4483635 66.28992838 -50.92652028 64.35188549 -50.40478516 62.41381836 C-47.62299257 52.24665778 -47.62299257 52.24665778 -45.84375 48.3125 C-44.36934368 44.95222513 -43.69965452 41.8592231 -43.0625 38.25 C-37.22817506 6.97817506 -37.22817506 6.97817506 -32.5 2.25 C-21.76715015 0.1702257 -10.89660256 0.03471049 0 0 Z " fill="#FCFCFC" transform="translate(777.5,651.75)"/>
<path d="M0 0 C-6.43387237 5.46517698 -13.06408935 10.5810618 -19.875 15.5625 C-34.32379305 26.13485813 -48.57829192 36.95129849 -62.51171875 48.1953125 C-66.06416856 51.06080247 -69.65450263 53.876341 -73.25 56.6875 C-82.94714655 63.98331214 -82.94714655 63.98331214 -92 72 C-93.68608966 72.07205511 -95.37500659 72.08386068 -97.0625 72.0625 C-98.44115234 72.04896484 -98.44115234 72.04896484 -99.84765625 72.03515625 C-100.55792969 72.02355469 -101.26820313 72.01195312 -102 72 C-93.69515897 61.67506251 -83.42205365 53.57628211 -72.98339844 45.53759766 C-70.8546825 43.88734495 -68.74293915 42.21691622 -66.6328125 40.54296875 C-57.36451761 33.21329719 -47.95701929 26.35847518 -38 20 C-37.26136719 19.52320801 -36.52273438 19.04641602 -35.76171875 18.55517578 C-27.2840451 13.08440504 -18.74168641 7.72803266 -10 2.6875 C-9.00335327 2.10053345 -9.00335327 2.10053345 -7.98657227 1.50170898 C-3.35337806 -1.11779269 -3.35337806 -1.11779269 0 0 Z " fill="#EDEEF0" transform="translate(497,238)"/>
<path d="M0 0 C-2.63287215 1.7552481 -4.06173399 2.42407906 -7.0078125 3.19140625 C-7.81822998 3.40982178 -8.62864746 3.6282373 -9.46362305 3.85327148 C-10.34187744 4.08731689 -11.22013184 4.3213623 -12.125 4.5625 C-21.95310676 7.25080442 -31.47242747 10.58336141 -40.99853516 14.19165039 C-42.01351074 14.5705542 -43.02848633 14.94945801 -44.07421875 15.33984375 C-44.97744873 15.68394287 -45.88067871 16.02804199 -46.8112793 16.38256836 C-49 17 -49 17 -51 16 C-51 14.68 -51 13.36 -51 12 C-51.99 11.34 -52.98 10.68 -54 10 C-11.22986278 -0.24381567 -11.22986278 -0.24381567 0 0 Z " fill="#0F1F32" transform="translate(682,211)"/>
<path d="M0 0 C1.65 0.33 3.3 0.66 5 1 C6.30865755 4.92597265 5.20247442 7.57279324 4.05078125 11.38671875 C3.83689255 12.1213887 3.62300385 12.85605865 3.40263367 13.61299133 C2.71399185 15.97361477 2.01389282 18.33063687 1.3125 20.6875 C0.40836937 23.75262881 -0.49065798 26.81922163 -1.38671875 29.88671875 C-1.6072995 30.63984344 -1.82788025 31.39296814 -2.05514526 32.16891479 C-4.2490133 39.72730409 -6.1565675 47.34965705 -8 55 C-8.33 55 -8.66 55 -9 55 C-9.19666111 48.88243478 -8.49019708 43.41761276 -7.25 37.4375 C-6.8822813 35.5954171 -6.51646912 33.75295281 -6.15234375 31.91015625 C-5.96269043 30.95254395 -5.77303711 29.99493164 -5.57763672 29.00830078 C-4.38854856 22.81559399 -3.35467341 16.59474451 -2.30761719 10.37670898 C-2.15067383 9.45575439 -1.99373047 8.5347998 -1.83203125 7.5859375 C-1.69514893 6.7717334 -1.5582666 5.9575293 -1.41723633 5.11865234 C-1 3 -1 3 0 0 Z " fill="#0F1C2D" transform="translate(238,544)"/>
<path d="M0 0 C9.34413088 0.5573276 18.67519581 1.16995114 28 2 C28 2.66 28 3.32 28 4 C26.91460938 4.06058594 25.82921875 4.12117187 24.7109375 4.18359375 C23.26561514 4.26806064 21.82030318 4.35270551 20.375 4.4375 C19.66214844 4.47681641 18.94929687 4.51613281 18.21484375 4.55664062 C15.05116704 4.74530025 12.00387595 4.99934109 8.875 5.53125 C5.74262535 6.04196326 2.79624813 6.09773609 -0.375 6.0625 C-1.96441406 6.04896484 -1.96441406 6.04896484 -3.5859375 6.03515625 C-4.38257813 6.02355469 -5.17921875 6.01195312 -6 6 C-6 5.01 -6 4.02 -6 3 C-4.02 2.67 -2.04 2.34 0 2 C0 1.34 0 0.68 0 0 Z " fill="#243040" transform="translate(964,515)"/>
<path d="M0 0 C0.33 1.32 0.66 2.64 1 4 C1.66 4 2.32 4 3 4 C2.53285553 9.95609198 0.68307681 14.03443116 -2.25 19.1875 C-5.62770331 25.3046953 -8.54782135 31.33403768 -11.02734375 37.875 C-12 40 -12 40 -14 41 C-10.50501783 28.79822013 -6.65923629 16.564502 -1.76171875 4.84765625 C-1.10642585 3.25815091 -0.5436852 1.63105561 0 0 Z " fill="#232C3D" transform="translate(290,539)"/>
<path d="M0 0 C1.71156647 3.08716718 2.54915899 5.94993694 3.25390625 9.40234375 C3.46829346 10.45236572 3.68268066 11.5023877 3.90356445 12.58422852 C4.22973755 14.2440979 4.22973755 14.2440979 4.5625 15.9375 C4.78574951 17.06019287 5.00899902 18.18288574 5.23901367 19.33959961 C6.69960973 26.89650142 7.83140908 34.29079704 8 42 C6.59243031 39.35438949 5.6019587 36.88796222 4.88671875 33.98046875 C4.69295654 33.21210693 4.49919434 32.44374512 4.29956055 31.65209961 C4.09758057 30.83878174 3.89560059 30.02546387 3.6875 29.1875 C1.75617634 21.59446777 -0.49541504 14.20233669 -3.08203125 6.80859375 C-4 4 -4 4 -4 2 C-2.68 2 -1.36 2 0 2 C0 1.34 0 0.68 0 0 Z " fill="#141D2E" transform="translate(1052,403)"/>
<path d="M0 0 C0.495 1.485 0.495 1.485 1 3 C0.34 3.99 -0.32 4.98 -1 6 C-1.66 6 -2.32 6 -3 6 C-3.26296875 6.57878906 -3.5259375 7.15757813 -3.796875 7.75390625 C-7.13885357 13.99298962 -12.63450976 18.54778469 -18 23 C-19.62238054 24.84308624 -21.177344 26.72089875 -22.703125 28.64453125 C-23.13109375 29.09183594 -23.5590625 29.53914063 -24 30 C-24.66 30 -25.32 30 -26 30 C-26.2475 30.598125 -26.495 31.19625 -26.75 31.8125 C-28.16370012 34.28647521 -29.65055383 35.43370255 -32 37 C-32.66 36.67 -33.32 36.34 -34 36 C-33.25427734 35.26475098 -32.50855469 34.52950195 -31.74023438 33.77197266 C-28.93188545 31.00026879 -26.13052598 28.22158572 -23.33105469 25.44091797 C-22.12652254 24.24634328 -20.92018961 23.05358119 -19.71191406 21.86279297 C-12.65074238 14.90115687 -5.94411447 7.96265564 0 0 Z " fill="#131313" transform="translate(1184,1143)"/>
<path d="M0 0 C1.27037109 0.01353516 1.27037109 0.01353516 2.56640625 0.02734375 C3.18386719 0.03894531 3.80132813 0.05054688 4.4375 0.0625 C4.4375 0.7225 4.4375 1.3825 4.4375 2.0625 C3.50808594 2.12308594 2.57867188 2.18367187 1.62109375 2.24609375 C-9.12254282 2.76011243 -9.12254282 2.76011243 -19.5625 5.0625 C-21.39306393 5.18104556 -23.22814306 5.23767233 -25.0625 5.25 C-26.50109375 5.27126953 -26.50109375 5.27126953 -27.96875 5.29296875 C-30.5625 5.0625 -30.5625 5.0625 -33.5625 3.0625 C-33.5625 3.7225 -33.5625 4.3825 -33.5625 5.0625 C-36.2025 5.0625 -38.8425 5.0625 -41.5625 5.0625 C-41.5625 4.4025 -41.5625 3.7425 -41.5625 3.0625 C-38.20380265 2.32211781 -35.01345416 1.90540261 -31.578125 1.78125 C-30.64226563 1.74386719 -29.70640625 1.70648437 -28.7421875 1.66796875 C-27.77539062 1.63316406 -26.80859375 1.59835937 -25.8125 1.5625 C-19.6766261 1.33801681 -13.61990153 1.00666018 -7.52294922 0.27197266 C-5.00762785 0.00321229 -2.52807262 -0.03560666 0 0 Z " fill="#42A721" transform="translate(816.5625,952.9375)"/>
<path d="M0 0 C0.99 0.33 1.98 0.66 3 1 C1.88473576 8.25754042 0.25192735 15.37459998 -1.5 22.5 C-1.71358154 23.38461914 -1.92716309 24.26923828 -2.1472168 25.18066406 C-2.35644775 26.01823242 -2.56567871 26.85580078 -2.78125 27.71875 C-2.96751953 28.47091797 -3.15378906 29.22308594 -3.34570312 29.99804688 C-4 32 -4 32 -6 35 C-6.34423507 27.77989011 -5.04015047 21.17538739 -3.5625 14.125 C-3.33240234 12.98546875 -3.10230469 11.8459375 -2.86523438 10.671875 C-1.15015877 2.30031753 -1.15015877 2.30031753 0 0 Z " fill="#161F30" transform="translate(235,564)"/>
<path d="M0 0 C3.56149285 1.53103256 5.9951691 3.67263877 8.8125 6.3125 C12.70753395 9.89016082 16.61793023 13.04686603 21 16 C20.1875 17.9375 20.1875 17.9375 19 20 C18.01 20.33 17.02 20.66 16 21 C14.26883192 18.81405921 12.54003837 16.62630663 10.8125 14.4375 C10.32974609 13.82841797 9.84699219 13.21933594 9.34960938 12.59179688 C6.10592685 8.47732709 3.01608937 4.28428051 0 0 Z " fill="#4BAD21" transform="translate(179,1013)"/>
<path d="M0 0 C-2.77497971 1.84998648 -4.59727366 2.59205146 -7.74609375 3.47265625 C-8.66583984 3.73240234 -9.58558594 3.99214844 -10.53320312 4.25976562 C-11.49162109 4.52466797 -12.45003906 4.78957031 -13.4375 5.0625 C-14.39205078 5.33126953 -15.34660156 5.60003906 -16.33007812 5.87695312 C-18.88440702 6.59373821 -21.43936696 7.30607675 -24 8 C-24.69359619 8.22228271 -25.38719238 8.44456543 -26.10180664 8.67358398 C-29.2263625 9.21088703 -31.34284602 7.50974658 -34 6 C-34 5.67 -34 5.34 -34 5 C-29.64779129 4.15621817 -25.2929557 3.32684382 -20.9375 2.5 C-19.70837891 2.26152344 -18.47925781 2.02304688 -17.21289062 1.77734375 C-16.01728516 1.55175781 -14.82167969 1.32617188 -13.58984375 1.09375 C-12.49534912 0.88427734 -11.40085449 0.67480469 -10.27319336 0.45898438 C-6.80863011 -0.02683489 -3.49390665 -0.0773416 0 0 Z " fill="#2C3448" transform="translate(682,211)"/>
<path d="M0 0 C0.66 0.33 1.32 0.66 2 1 C1.01 2.485 1.01 2.485 0 4 C-0.66 4 -1.32 4 -2 4 C-2 4.66 -2 5.32 -2 6 C-2.66 6 -3.32 6 -4 6 C-4.25136719 6.59039062 -4.50273437 7.18078125 -4.76171875 7.7890625 C-6.15486406 10.27650807 -7.60964761 11.58070723 -9.8125 13.375 C-13.32619556 16.33828059 -16.17554296 19.38116442 -19 23 C-19.66 22.01 -20.32 21.02 -21 20 C-17.87904935 16.85012694 -14.75257094 13.70579867 -11.625 10.5625 C-10.73554688 9.66466797 -9.84609375 8.76683594 -8.9296875 7.84179688 C-7.65351563 6.56079102 -7.65351563 6.56079102 -6.3515625 5.25390625 C-5.56604004 4.46314697 -4.78051758 3.6723877 -3.97119141 2.85766602 C-2 1 -2 1 0 0 Z " fill="#1A2739" transform="translate(385,281)"/>
<path d="M0 0 C0.33 0 0.66 0 1 0 C1.16773186 4.50213622 1.32827877 9.00444973 1.48217773 13.50708008 C1.53554122 15.03872569 1.59086614 16.57030427 1.64819336 18.10180664 C1.73026252 20.30340117 1.80527067 22.50514051 1.87890625 24.70703125 C1.91945885 25.73374687 1.91945885 25.73374687 1.96083069 26.78120422 C2.05703182 29.8469855 1.98026873 32.05919382 1 35 C1.99 35 2.98 35 4 35 C4 35.66 4 36.32 4 37 C5.65 37 7.3 37 9 37 C9 37.66 9 38.32 9 39 C5.7 39 2.4 39 -1 39 C-0.67 26.13 -0.34 13.26 0 0 Z " fill="#2A3545" transform="translate(672,509)"/>
<path d="M0 0 C-0.57823096 4.06225548 -1.89117737 6.84762346 -4.0625 10.3125 C-4.61035156 11.19550781 -5.15820312 12.07851563 -5.72265625 12.98828125 C-6.14417969 13.65214844 -6.56570313 14.31601562 -7 15 C-7.33 14.34 -7.66 13.68 -8 13 C-7.67 12.34 -7.34 11.68 -7 11 C-7.66 11 -8.32 11 -9 11 C-9.47661072 6.90114782 -9.3448928 5.44069635 -6.75 2.125 C-4 0 -4 0 0 0 Z " fill="#091221" transform="translate(300,532)"/>
<path d="M0 0 C-11.52164009 9.59453303 -11.52164009 9.59453303 -17 13 C-17.66 11.35 -18.32 9.7 -19 8 C-16.40251918 6.4666195 -13.79812104 4.94820332 -11.1875 3.4375 C-10.44951172 2.99986328 -9.71152344 2.56222656 -8.95117188 2.11132812 C-8.23896484 1.70205078 -7.52675781 1.29277344 -6.79296875 0.87109375 C-6.1383667 0.48880615 -5.48376465 0.10651855 -4.80932617 -0.28735352 C-3 -1 -3 -1 0 0 Z " fill="#E7E9EB" transform="translate(497,238)"/>
<path d="M0 0 C0.66 0.33 1.32 0.66 2 1 C0.62714844 2.35544922 0.62714844 2.35544922 -0.7734375 3.73828125 C-1.97409058 4.92955423 -3.17460415 6.12096783 -4.375 7.3125 C-4.97828125 7.90740234 -5.5815625 8.50230469 -6.203125 9.11523438 C-6.78320312 9.69208984 -7.36328125 10.26894531 -7.9609375 10.86328125 C-8.49509277 11.39219971 -9.02924805 11.92111816 -9.57958984 12.46606445 C-11.21501465 14.1510098 -11.21501465 14.1510098 -13 17 C-13.66 17 -14.32 17 -15 17 C-15.33 17.99 -15.66 18.98 -16 20 C-17.7421875 21.82421875 -17.7421875 21.82421875 -19.875 23.6875 C-20.57367188 24.31011719 -21.27234375 24.93273437 -21.9921875 25.57421875 C-24 27 -24 27 -27 27 C-18.09 18.09 -9.18 9.18 0 0 Z " fill="#E7E7E8" transform="translate(105,73)"/>
<path d="M0 0 C9.24 0 18.48 0 28 0 C28 0.33 28 0.66 28 1 C13.645 2.485 13.645 2.485 -1 4 C-0.67 2.68 -0.34 1.36 0 0 Z " fill="#040404" transform="translate(252,0)"/>
<path d="M0 0 C9.24 0 18.48 0 28 0 C27.67 0.99 27.34 1.98 27 3 C27.99 3.33 28.98 3.66 30 4 C28.25976562 3.80083984 28.25976562 3.80083984 26.484375 3.59765625 C17.66483638 2.59754137 8.85301594 1.65963648 0 1 C0 0.67 0 0.34 0 0 Z " fill="#0A0909" transform="translate(974,0)"/>
<path d="M0 0 C0.85078125 0.04833984 1.7015625 0.09667969 2.578125 0.14648438 C3.46757813 0.20255859 4.35703125 0.25863281 5.2734375 0.31640625 C6.170625 0.36861328 7.0678125 0.42082031 7.9921875 0.47460938 C10.21127762 0.60444975 12.42993621 0.73941964 14.6484375 0.87890625 C14.6484375 1.53890625 14.6484375 2.19890625 14.6484375 2.87890625 C8.0484375 3.20890625 1.4484375 3.53890625 -5.3515625 3.87890625 C-5.6815625 2.88890625 -6.0115625 1.89890625 -6.3515625 0.87890625 C-3.94721244 -0.32326878 -2.66774881 -0.16006493 0 0 Z " fill="#30384A" transform="translate(977.3515625,516.12109375)"/>
<path d="M0 0 C2.42788318 3.64182478 2.92100249 7.08492309 3.625 11.3125 C3.7590625 12.05951172 3.893125 12.80652344 4.03125 13.57617188 C4.75254051 17.76775295 5.14937061 21.72935844 5 26 C2.86252023 22.2666643 1.86359154 18.2610642 0.8125 14.125 C0.62236328 13.43019531 0.43222656 12.73539062 0.23632812 12.01953125 C-0.87238631 7.67467983 -1.09556481 4.45204044 0 0 Z " fill="#303848" transform="translate(1055,419)"/>
<path d="M0 0 C5.66129431 4.69766975 10.85228904 9.74723372 16 15 C15.34 15.66 14.68 16.32 14 17 C11.65453302 14.74141867 9.32587973 12.46623352 7 10.1875 C6.33226562 9.54490234 5.66453125 8.90230469 4.9765625 8.24023438 C4.34492187 7.61826172 3.71328125 6.99628906 3.0625 6.35546875 C2.47597656 5.78465576 1.88945313 5.21384277 1.28515625 4.62573242 C0 3 0 3 0 0 Z " fill="#141E30" transform="translate(965,278)"/>
<path d="M0 0 C0.89894866 3.16615004 0.81736575 4.83270772 0 8 C0.33 8.99 0.66 9.98 1 11 C0.0625 13.1875 0.0625 13.1875 -1 15 C-1.66 15 -2.32 15 -3 15 C-2.938125 15.928125 -2.87625 16.85625 -2.8125 17.8125 C-3 21 -3 21 -4.5 22.875 C-5.2425 23.431875 -5.2425 23.431875 -6 24 C-5.48549993 19.6267494 -4.62448949 16.06122373 -3 12 C-2.42674959 9.90421754 -1.88557559 7.7994263 -1.375 5.6875 C-0.98441406 4.08455078 -0.98441406 4.08455078 -0.5859375 2.44921875 C-0.39257812 1.64097656 -0.19921875 0.83273437 0 0 Z " fill="#BDC3C9" transform="translate(312,771)"/>
<path d="M0 0 C4.95 0 9.9 0 15 0 C11 5 11 5 8 6 C7.13375 5.071875 7.13375 5.071875 6.25 4.125 C3.91947007 1.71889788 3.91947007 1.71889788 0 0 Z " fill="#5DB644" transform="translate(877,947)"/>
<path d="M0 0 C11.385 0.99 11.385 0.99 23 2 C23 2.33 23 2.66 23 3 C14.75 3 6.5 3 -2 3 C-1.34 2.01 -0.68 1.02 0 0 Z " fill="#090A09" transform="translate(257,1251)"/>
<path d="M0 0 C1.73662334 3.22515763 2.8905928 6.51329166 4 10 C2.41532272 9.71572583 0.8322943 9.42225182 -0.75 9.125 C-1.63171875 8.96257812 -2.5134375 8.80015625 -3.421875 8.6328125 C-6 8 -6 8 -10 6 C-7.03 6 -4.06 6 -1 6 C-0.67 4.02 -0.34 2.04 0 0 Z " fill="#273042" transform="translate(947,284)"/>
<path d="M0 0 C0.66 0 1.32 0 2 0 C1.45144652 4.571279 0.58255197 8.67435795 -1 13 C-6.08086796 13.84681133 -10.84828377 14.09038099 -16 14 C-16 13.67 -16 13.34 -16 13 C-11.38 12.67 -6.76 12.34 -2 12 C-1.855625 10.576875 -1.71125 9.15375 -1.5625 7.6875 C-1.27859126 4.88897096 -0.8968714 2.6906142 0 0 Z " fill="#424A58" transform="translate(542,921)"/>
<path d="M0 0 C1.45047396 2.90094791 0.45356803 4.55972596 -0.4375 7.625 C-0.72496094 8.62789062 -1.01242187 9.63078125 -1.30859375 10.6640625 C-1.65083984 11.82035156 -1.65083984 11.82035156 -2 13 C-3.98 12.34 -5.96 11.68 -8 11 C-7.04454634 9.53977837 -6.08553322 8.08188532 -5.125 6.625 C-4.59132813 5.81289063 -4.05765625 5.00078125 -3.5078125 4.1640625 C-2 2 -2 2 0 0 Z " fill="#D3D7DC" transform="translate(503,744)"/>
<path d="M0 0 C0 7.92 0 15.84 0 24 C-0.33 24 -0.66 24 -1 24 C-1.66 16.41 -2.32 8.82 -3 1 C-1 0 -1 0 0 0 Z " fill="#151616" transform="translate(1254,256)"/>
<path d="M0 0 C0.33 0 0.66 0 1 0 C1.08681476 3.62484999 1.14032721 7.24943443 1.1875 10.875 C1.22520508 12.42380859 1.22520508 12.42380859 1.26367188 14.00390625 C1.27333984 14.99003906 1.28300781 15.97617187 1.29296875 16.9921875 C1.3086792 17.90339355 1.32438965 18.81459961 1.34057617 19.75341797 C1.22818604 20.49479004 1.1157959 21.23616211 1 22 C0.01 22.66 -0.98 23.32 -2 24 C-1.34 16.08 -0.68 8.16 0 0 Z " fill="#0C0C0C" transform="translate(1253,974)"/>
<path d="M0 0 C0.66 0.33 1.32 0.66 2 1 C2.05429959 2.74965358 2.09292823 4.49979787 2.125 6.25 C2.14820313 7.22453125 2.17140625 8.1990625 2.1953125 9.203125 C1.99862781 12.0196498 1.44568916 13.60949036 0 16 C-1.02224111 11.01657457 -1.3632306 6.07454515 -1 1 C-0.67 0.67 -0.34 0.34 0 0 Z " fill="#06111F" transform="translate(918,694)"/>
<path d="M0 0 C-3.75 4.875 -3.75 4.875 -6 6 C-6 5.34 -6 4.68 -6 4 C-7.65 4.66 -9.3 5.32 -11 6 C-10.9375 4.1875 -10.9375 4.1875 -10 2 C-3.87234043 -1.29078014 -3.87234043 -1.29078014 0 0 Z " fill="#141F30" transform="translate(304,528)"/>
<path d="M0 0 C0.99 0 1.98 0 3 0 C2.68991116 1.60463449 2.37683713 3.20869231 2.0625 4.8125 C1.88847656 5.70582031 1.71445313 6.59914063 1.53515625 7.51953125 C1 10 1 10 0 13 C-0.99 12.67 -1.98 12.34 -3 12 C-2.01 8.04 -1.02 4.08 0 0 Z " fill="#152338" transform="translate(174,935)"/>
<path d="M0 0 C1.5168962 2.02252826 2.05773905 3.44875549 1.79296875 5.9765625 C0.52403846 11.65064103 0.52403846 11.65064103 -3 14 C-2.48594831 9.03083364 -1.76615118 4.70973649 0 0 Z " fill="#D3D7DC" transform="translate(911,744)"/>
<path d="M0 0 C2.64 0 5.28 0 8 0 C8.33 0.99 8.66 1.98 9 3 C6.11584117 4.44207941 3.58278472 4.09394887 0.375 4.0625 C-0.81351563 4.05347656 -2.00203125 4.04445313 -3.2265625 4.03515625 C-4.14179687 4.02355469 -5.05703125 4.01195312 -6 4 C-6 3.67 -6 3.34 -6 3 C-3.69 3 -1.38 3 1 3 C0.67 2.01 0.34 1.02 0 0 Z " fill="#040A18" transform="translate(965,516)"/>
<path d="M0 0 C0.33 0.66 0.66 1.32 1 2 C-3.22250055 3.60455021 -5.15482358 4.33807057 -9.4375 2.625 C-10.283125 2.08875 -11.12875 1.5525 -12 1 C-12 0.67 -12 0.34 -12 0 C-7.74936599 -1.15926382 -4.29942266 -0.90949326 0 0 Z " fill="#1E2C42" transform="translate(660,216)"/>
<path d="M0 0 C0.33 0 0.66 0 1 0 C2.53616498 7.26187082 1.07979208 12.94985735 -1 20 C-1.33 20 -1.66 20 -2 20 C-2.26404456 13.13484138 -1.25841946 6.74153283 0 0 Z " fill="#454D5B" transform="translate(231,579)"/>
<path d="M0 0 C0.99 0 1.98 0 3 0 C2.74379316 1.6065676 2.46944129 3.2102483 2.1875 4.8125 C2.03667969 5.70582031 1.88585937 6.59914063 1.73046875 7.51953125 C0.94604607 10.18321256 0.11372201 11.25690322 -2 13 C-1.85769192 11.58297487 -1.71099254 10.1663904 -1.5625 8.75 C-1.48128906 7.96109375 -1.40007812 7.1721875 -1.31640625 6.359375 C-1.02365007 4.17635361 -0.57935581 2.1226818 0 0 Z " fill="#192437" transform="translate(179,918)"/>
<path d="M0 0 C0.99 0 1.98 0 3 0 C3.96891192 5.37305699 3.96891192 5.37305699 4 8 C2.5625 10 2.5625 10 1 11 C-1.125 3.375 -1.125 3.375 0 0 Z " fill="#1E2737" transform="translate(1052,411)"/>
<path d="M0 0 C3.04192013 0.1415547 6.08346347 0.28809901 9.125 0.4375 C9.9809375 0.47681641 10.836875 0.51613281 11.71875 0.55664062 C16.21721792 0.78156402 20.56806207 1.13540883 25 2 C25 2.33 25 2.66 25 3 C18.4 3 11.8 3 5 3 C5 2.34 5 1.68 5 1 C3.35 1 1.7 1 0 1 C0 0.67 0 0.34 0 0 Z " fill="#6A727F" transform="translate(917,509)"/>
<path d="M0 0 C0.93423645 3.01031744 1.04449911 3.86650268 0 7 C0.66 7 1.32 7 2 7 C1.45773019 10.79588866 -0.20127563 12.47211993 -3 15 C-2.44854729 9.76119922 -1.57077907 5.02649303 0 0 Z " fill="#CED2D7" transform="translate(915,729)"/>
<path d="M0 0 C2 3 2 3 1.6875 5.5 C1.17901328 7.34904262 0.60642538 9.18072387 0 11 C-0.66 11 -1.32 11 -2 11 C-2.33 12.98 -2.66 14.96 -3 17 C-4.56393356 13.02623171 -3.36145292 10.18622097 -2.0625 6.25 C-1.68222656 5.07953125 -1.30195312 3.9090625 -0.91015625 2.703125 C-0.60980469 1.81109375 -0.30945313 0.9190625 0 0 Z " fill="#B8BEC6" transform="translate(724,727)"/>
<path d="M0 0 C-2.20875121 2.19602066 -4.40994275 4.26080867 -7 6 C-9.9375 5.875 -9.9375 5.875 -12 5 C-4.28571429 -1.42857143 -4.28571429 -1.42857143 0 0 Z " fill="#D5D8DD" transform="translate(497,238)"/>
<path d="M0 0 C0.99 0.33 1.98 0.66 3 1 C3.2226746 2.43534841 3.42761906 3.87345525 3.625 5.3125 C3.74101562 6.11300781 3.85703125 6.91351562 3.9765625 7.73828125 C4 10 4 10 2 13 C1.66127487 11.58461283 1.32925376 10.16762037 1 8.75 C0.814375 7.96109375 0.62875 7.1721875 0.4375 6.359375 C0 4 0 4 0 0 Z " fill="#152337" transform="translate(322,781)"/>
<path d="M0 0 C5.94 0 11.88 0 18 0 C18 0.33 18 0.66 18 1 C10.08 1.495 10.08 1.495 2 2 C1.34 3.65 0.68 5.3 0 7 C-0.93423645 3.98968256 -1.04449911 3.13349732 0 0 Z " fill="#D1D5DB" transform="translate(861,285)"/>
<path d="M0 0 C0.97582031 0.00902344 1.95164062 0.01804687 2.95703125 0.02734375 C3.69308594 0.03894531 4.42914062 0.05054688 5.1875 0.0625 C5.1875 0.3925 5.1875 0.7225 5.1875 1.0625 C2.5475 1.0625 -0.0925 1.0625 -2.8125 1.0625 C-2.8125 1.7225 -2.8125 2.3825 -2.8125 3.0625 C-5.4525 3.0625 -8.0925 3.0625 -10.8125 3.0625 C-10.8125 2.4025 -10.8125 1.7425 -10.8125 1.0625 C-7.13862505 0.20951624 -3.7677607 -0.04539471 0 0 Z " fill="#68B54C" transform="translate(785.8125,954.9375)"/>
<path d="M0 0 C1.18414294 3.55242882 0.69535532 4.69830562 -0.4375 8.1875 C-0.72496094 9.08855469 -1.01242187 9.98960937 -1.30859375 10.91796875 C-1.53675781 11.60503906 -1.76492188 12.29210937 -2 13 C-2.66 13 -3.32 13 -4 13 C-3 5.57142857 -3 5.57142857 -2 2 C-1.34 2 -0.68 2 0 2 C0 1.34 0 0.68 0 0 Z " fill="#283244" transform="translate(482,831)"/>
<path d="M0 0 C3.3 0 6.6 0 10 0 C10.33 2.64 10.66 5.28 11 8 C10.34 8 9.68 8 9 8 C8.34 6.02 7.68 4.04 7 2 C4.69 1.67 2.38 1.34 0 1 C0 0.67 0 0.34 0 0 Z " fill="#232D3E" transform="translate(366,609)"/>
<path d="M0 0 C0.66 0 1.32 0 2 0 C2.69710731 1.28650706 3.38242876 2.57940665 4.0625 3.875 C4.63677734 4.95394531 4.63677734 4.95394531 5.22265625 6.0546875 C5.47917969 6.69664062 5.73570312 7.33859375 6 8 C5.67 8.66 5.34 9.32 5 10 C1.32769295 6.92000054 0.43197635 4.7517398 0 0 Z " fill="#2B3647" transform="translate(908,623)"/>
<path d="M0 0 C0.99 0.33 1.98 0.66 3 1 C2.34 3.97 1.68 6.94 1 10 C0.34 10 -0.32 10 -1 10 C-1.125 2.25 -1.125 2.25 0 0 Z " fill="#061224" transform="translate(235,564)"/>
<path d="M0 0 C1.0169313 2.65498232 1.13022151 3.69155375 0.00390625 6.359375 C-0.47175781 7.14828125 -0.94742187 7.9371875 -1.4375 8.75 C-1.91058594 9.54921875 -2.38367188 10.3484375 -2.87109375 11.171875 C-3.24363281 11.77515625 -3.61617188 12.3784375 -4 13 C-4.66 13 -5.32 13 -6 13 C-4.58707905 8.1725201 -2.57025846 4.2837641 0 0 Z " fill="#2D3445" transform="translate(313,491)"/>
<path d="M0 0 C2.00720923 0.28674418 4.0085944 0.61866701 6 1 C3.64722731 3.72426311 1.37503669 4.8141763 -2 6 C-1.125 1.125 -1.125 1.125 0 0 Z " fill="#DDE0E3" transform="translate(791,187)"/>
<path d="M0 0 C0.33 0.99 0.66 1.98 1 3 C0.01 4.485 0.01 4.485 -1 6 C-1.66 6 -2.32 6 -3 6 C-3.433125 6.928125 -3.433125 6.928125 -3.875 7.875 C-5 10 -5 10 -7 12 C-7.33 11.34 -7.66 10.68 -8 10 C-5.36 6.7 -2.72 3.4 0 0 Z " fill="#191A1A" transform="translate(1184,1143)"/>
<path d="M0 0 C2.99220268 1.36370299 5.29026529 2.94908083 7.75 5.125 C8.67039063 5.93324219 8.67039063 5.93324219 9.609375 6.7578125 C10.06828125 7.16773438 10.5271875 7.57765625 11 8 C9.02 8.99 9.02 8.99 7 10 C5.83043409 8.52312468 4.66441854 7.04343707 3.5 5.5625 C2.8503125 4.73878906 2.200625 3.91507813 1.53125 3.06640625 C0 1 0 1 0 0 Z " fill="#56B73C" transform="translate(179,1013)"/>
<path d="M0 0 C0.33 1.32 0.66 2.64 1 4 C1.66 4 2.32 4 3 4 C2.8125 5.875 2.8125 5.875 2 8 C-0.5625 9.25 -0.5625 9.25 -3 10 C-2.01 6.7 -1.02 3.4 0 0 Z " fill="#2C3849" transform="translate(290,539)"/>
<path d="M0 0 C-4.9834359 2.49171795 -7.40604574 3.03041444 -13.125 2.5625 C-14.40632812 2.46066406 -15.68765625 2.35882812 -17.0078125 2.25390625 C-18.48894531 2.12822266 -18.48894531 2.12822266 -20 2 C-20 1.67 -20 1.34 -20 1 C-13.31184516 0.37577221 -6.71884955 -0.12920865 0 0 Z " fill="#8E95A2" transform="translate(896,527)"/>
<path d="M0 0 C4.62 0 9.24 0 14 0 C14 1.98 14 3.96 14 6 C13.79632813 5.35546875 13.59265625 4.7109375 13.3828125 4.046875 C12.1332065 1.68846128 12.1332065 1.68846128 9.1796875 1.390625 C8.08914063 1.34421875 6.99859375 1.2978125 5.875 1.25 C4.23144531 1.16492188 4.23144531 1.16492188 2.5546875 1.078125 C1.71164062 1.05234375 0.86859375 1.0265625 0 1 C0 0.67 0 0.34 0 0 Z " fill="#E5E9EC" transform="translate(382,322)"/>
<path d="M0 0 C3.63 0 7.26 0 11 0 C10.67 0.99 10.34 1.98 10 3 C6.7 3 3.4 3 0 3 C0 2.01 0 1.02 0 0 Z " fill="#4FB032" transform="translate(822,952)"/>
<path d="M0 0 C1.53166168 4.08443115 0.63081652 7.79455657 0 12 C-0.66 12 -1.32 12 -2 12 C-2.33 12.99 -2.66 13.98 -3 15 C-2.44854729 9.76119922 -1.57077907 5.02649303 0 0 Z " fill="#B3B9C2" transform="translate(712,770)"/>
<path d="M0 0 C3.93548431 3.06093224 6.68116787 5.49115974 9 10 C8.01 10 7.02 10 6 10 C6 9.34 6 8.68 6 8 C5.34 8 4.68 8 4 8 C0 2.58823529 0 2.58823529 0 0 Z " fill="#162034" transform="translate(893,601)"/>
<path d="M0 0 C0.66 0.66 1.32 1.32 2 2 C1.96712417 4.72869407 1.43602229 7.2966618 1 10 C0.01 10.33 -0.98 10.66 -2 11 C-1.34 7.37 -0.68 3.74 0 0 Z " fill="#E3E5E8" transform="translate(574,305)"/>
<path d="M0 0 C1.28222189 3.03070628 0.98589446 4.03596914 -0.25 7.1875 C-2 10 -2 10 -5 11 C-3.77472971 6.94718288 -2.30119506 3.55639236 0 0 Z " fill="#2F394B" transform="translate(286,410)"/>
<path d="M0 0 C0.66 0.33 1.32 0.66 2 1 C-2.625 6.875 -2.625 6.875 -6 8 C-6 5 -6 5 -4.6875 3.61328125 C-3.125 2.40885417 -1.5625 1.20442708 0 0 Z " fill="#172437" transform="translate(438,282)"/>
<path d="M0 0 C2.3431213 0.25561323 4.67843403 0.59270772 7 1 C7.33 1.66 7.66 2.32 8 3 C3.545 3.495 3.545 3.495 -1 4 C-0.67 2.68 -0.34 1.36 0 0 Z " fill="#0D0D0D" transform="translate(252,0)"/>
<path d="M0 0 C0.66 0.33 1.32 0.66 2 1 C-0.734375 6.37109375 -0.734375 6.37109375 -2 8 C-3.32 8.33 -4.64 8.66 -6 9 C-4.02 6.03 -2.04 3.06 0 0 Z " fill="#1B1C1B" transform="translate(1202,1120)"/>
<path d="M0 0 C-1.99541868 0.68025637 -3.99617991 1.34490497 -6 2 C-6.66 2.226875 -7.32 2.45375 -8 2.6875 C-10.80197588 3.12530873 -13.24304401 2.56392282 -16 2 C-16 1.67 -16 1.34 -16 1 C-14.0852312 0.63571223 -12.16807707 0.28394694 -10.25 -0.0625 C-9.18265625 -0.25972656 -8.1153125 -0.45695312 -7.015625 -0.66015625 C-4.25228095 -0.97156937 -2.59053383 -0.8991416 0 0 Z " fill="#68B558" transform="translate(500,1078)"/>
<path d="M0 0 C0.33 0.66 0.66 1.32 1 2 C1.66 2.33 2.32 2.66 3 3 C3 3.66 3 4.32 3 5 C4.65 5.33 6.3 5.66 8 6 C8 6.33 8 6.66 8 7 C5.03 7 2.06 7 -1 7 C-0.67 4.69 -0.34 2.38 0 0 Z " fill="#212736" transform="translate(583,922)"/>
<path d="M0 0 C0.66 0.33 1.32 0.66 2 1 C1.51171875 7.0546875 1.51171875 7.0546875 1 9 C0.01 9.66 -0.98 10.32 -2 11 C-1.125 3.375 -1.125 3.375 0 0 Z " fill="#323C4D" transform="translate(471,866)"/>
<path d="M0 0 C-0.33 1.32 -0.66 2.64 -1 4 C-2.98 4.33 -4.96 4.66 -7 5 C-6.625 3.0625 -6.625 3.0625 -6 1 C-4 0 -4 0 0 0 Z " fill="#070E1B" transform="translate(300,532)"/>
<path d="M0 0 C0.66 0.33 1.32 0.66 2 1 C-2 7.57142857 -2 7.57142857 -6 9 C-4.47291037 5.56404834 -2.40072955 2.88087546 0 0 Z " fill="#DBDFE2" transform="translate(342,365)"/>
<path d="M0 0 C0 0.99 0 1.98 0 3 C-6.0546875 3.9765625 -6.0546875 3.9765625 -8 4 C-8.66 3.34 -9.32 2.68 -10 2 C-3.375 0 -3.375 0 0 0 Z " fill="#1A273A" transform="translate(591,166)"/>
<path d="M0 0 C1.0725 0.2475 2.145 0.495 3.25 0.75 C3.25 1.08 3.25 1.41 3.25 1.75 C-0.62684087 2.94287411 -3.66621923 3.75 -7.75 3.75 C-5.15187156 0.32047046 -4.43092205 -0.2953948 0 0 Z " fill="#50AD30" transform="translate(776.75,957.25)"/>
<path d="M0 0 C0.33 0 0.66 0 1 0 C1.0270043 1.45823212 1.04639787 2.91660675 1.0625 4.375 C1.07410156 5.18710937 1.08570313 5.99921875 1.09765625 6.8359375 C1 9 1 9 0 11 C-0.66 11 -1.32 11 -2 11 C-1.125 3.375 -1.125 3.375 0 0 Z " fill="#2D3849" transform="translate(464,892)"/>
<path d="M0 0 C0.66 0.66 1.32 1.32 2 2 C1.8125 5 1.8125 5 1 8 C0.01 8.66 -0.98 9.32 -2 10 C-1.34 6.7 -0.68 3.4 0 0 Z " fill="#E5E8EB" transform="translate(556,876)"/>
<path d="M0 0 C-1.485 2.475 -1.485 2.475 -3 5 C-4.32 4.34 -5.64 3.68 -7 3 C-7 2.01 -7 1.02 -7 0 C-4.3333581 -1.33332095 -2.83319697 -0.67102033 0 0 Z " fill="#161E2E" transform="translate(299,536)"/>
<path d="M0 0 C0.66 0.66 1.32 1.32 2 2 C-0.25 4.0625 -0.25 4.0625 -3 6 C-4.32 5.67 -5.64 5.34 -7 5 C-4.69 3.35 -2.38 1.7 0 0 Z " fill="#182536" transform="translate(458,267)"/>
<path d="M0 0 C0.66 0.33 1.32 0.66 2 1 C1.71758359 2.46015291 1.42373386 3.91809793 1.125 5.375 C0.96257813 6.18710937 0.80015625 6.99921875 0.6328125 7.8359375 C0 10 0 10 -2 12 C-3 9 -3 9 -2 6 C-1.34 6 -0.68 6 0 6 C0 4.02 0 2.04 0 0 Z " fill="#293445" transform="translate(584,262)"/>
<path d="M0 0 C0.66 0.33 1.32 0.66 2 1 C1.21625 1.391875 0.4325 1.78375 -0.375 2.1875 C-3.35156418 4.24274669 -3.98823563 5.59679258 -5 9 C-5.66 8.67 -6.32 8.34 -7 8 C-6.01347016 4.68167234 -5.31268497 3.23451373 -2.5 1.125 C-1.675 0.75375 -0.85 0.3825 0 0 Z " fill="#D9DCE1" transform="translate(596,245)"/>
<path d="M0 0 C0.33 0 0.66 0 1 0 C1.31563182 5.26053037 0.66590937 8.44573816 -2 13 C-3.18771723 9.57056481 -2.80226223 7.62215325 -1.5625 4.25 C-1.27503906 3.45078125 -0.98757813 2.6515625 -0.69140625 1.828125 C-0.46324219 1.22484375 -0.23507812 0.6215625 0 0 Z " fill="#B4BAC2" transform="translate(293,836)"/>
<path d="M0 0 C4 4.75 4 4.75 4 7 C3.34 7 2.68 7 2 7 C1.67 7.66 1.34 8.32 1 9 C0.34 8.67 -0.32 8.34 -1 8 C-0.67 5.36 -0.34 2.72 0 0 Z " fill="#2D3947" transform="translate(235,558)"/>
<path d="M0 0 C1.98 0 3.96 0 6 0 C5.67 2.64 5.34 5.28 5 8 C3 5 3 5 3 1 C2.01 0.67 1.02 0.34 0 0 Z " fill="#57B92D" transform="translate(1147,536)"/>
<path d="M0 0 C5.53846154 -0.36923077 5.53846154 -0.36923077 7.875 1.5 C8.24625 1.995 8.6175 2.49 9 3 C6.36 3 3.72 3 1 3 C0.67 2.01 0.34 1.02 0 0 Z " fill="#050D17" transform="translate(905,522)"/>
<path d="M0 0 C0.66 0.66 1.32 1.32 2 2 C1.875 4 1.875 4 1 6 C-1.0625 7.25 -1.0625 7.25 -3 8 C-1.125 2.25 -1.125 2.25 0 0 Z " fill="#243246" transform="translate(300,517)"/>
<path d="M0 0 C0.66 0.99 1.32 1.98 2 3 C1.01 4.98 0.02 6.96 -1 9 C-1.66 8.67 -2.32 8.34 -3 8 C-2.37240135 5.07120629 -1.41377341 2.63904371 0 0 Z " fill="#F0F1F2" transform="translate(308,495)"/>
<path d="M0 0 C0.66 0 1.32 0 2 0 C2 0.66 2 1.32 2 2 C1.34 2 0.68 2 0 2 C-0.2475 2.804375 -0.495 3.60875 -0.75 4.4375 C-1.1625 5.283125 -1.575 6.12875 -2 7 C-4.078125 7.66015625 -4.078125 7.66015625 -6 8 C-5.04956626 6.66102417 -4.08940853 5.32894573 -3.125 4 C-2.59132813 3.2575 -2.05765625 2.515 -1.5078125 1.75 C-1.01023437 1.1725 -0.51265625 0.595 0 0 Z " fill="#E8EAED" transform="translate(352,353)"/>
<path d="M0 0 C2.64 1.65 5.28 3.3 8 5 C6.02 5.99 6.02 5.99 4 7 C0 2.25 0 2.25 0 0 Z " fill="#CED0D5" transform="translate(934,256)"/>
<path d="M0 0 C0.66 0.33 1.32 0.66 2 1 C0.70700306 3.88437779 -0.65941363 5.87219421 -3 8 C-3.33 6.68 -3.66 5.36 -4 4 C-2.68 3.67 -1.36 3.34 0 3 C0 2.01 0 1.02 0 0 Z " fill="#131D2C" transform="translate(463,793)"/>
<path d="M0 0 C0.33 0 0.66 0 1 0 C1.36923077 4.55384615 1.36923077 4.55384615 -0.5 6.8125 C-0.995 7.204375 -1.49 7.59625 -2 8 C-2.99 7.67 -3.98 7.34 -5 7 C-4.19152271 5.83054208 -3.37810888 4.66449539 -2.5625 3.5 C-2.11003906 2.8503125 -1.65757812 2.200625 -1.19140625 1.53125 C-0.79824219 1.0259375 -0.40507812 0.520625 0 0 Z " fill="#1F2B3D" transform="translate(495,636)"/>
<path d="M0 0 C2.1875 0.3125 2.1875 0.3125 4 1 C1.03 3.475 1.03 3.475 -2 6 C-2.33 5.01 -2.66 4.02 -3 3 C-1.75 1.4375 -1.75 1.4375 0 0 Z " fill="#152133" transform="translate(373,405)"/>
<path d="M0 0 C0.33 0.66 0.66 1.32 1 2 C1.66 2.33 2.32 2.66 3 3 C1.75 4.5625 1.75 4.5625 0 6 C-2.1875 5.6875 -2.1875 5.6875 -4 5 C-2.68 3.35 -1.36 1.7 0 0 Z " fill="#1C2636" transform="translate(333,337)"/>
<path d="M0 0 C2 3 2 3 1.625 6.1875 C1.41875 7.115625 1.2125 8.04375 1 9 C0.34 8.67 -0.32 8.34 -1 8 C-0.67 5.36 -0.34 2.72 0 0 Z " fill="#D8DCE1" transform="translate(567,333)"/>
<path d="M0 0 C0.99 0 1.98 0 3 0 C3 1.65 3 3.3 3 5 C1.02 5.99 1.02 5.99 -1 7 C-0.67 4.69 -0.34 2.38 0 0 Z " fill="#E0E3E7" transform="translate(578,289)"/>
<path d="M0 0 C0.53625 0.37125 1.0725 0.7425 1.625 1.125 C-1.6875 2.25 -1.6875 2.25 -5.375 3.125 C-6.365 2.465 -7.355 1.805 -8.375 1.125 C-2.95961538 -1.09038462 -2.95961538 -1.09038462 0 0 Z " fill="#1B283A" transform="translate(556.375,177.875)"/>
<path d="M0 0 C2.4375 0.375 2.4375 0.375 5 1 C5.33 1.66 5.66 2.32 6 3 C5.34 3 4.68 3 4 3 C3.67 3.99 3.34 4.98 3 6 C0 2.25 0 2.25 0 0 Z " fill="#41A51A" transform="translate(187,1022)"/>
<path d="M0 0 C0.66 0.66 1.32 1.32 2 2 C-0.31 3.32 -2.62 4.64 -5 6 C-5.66 5.34 -6.32 4.68 -7 4 C-4.69 2.68 -2.38 1.36 0 0 Z " fill="#46AB2A" transform="translate(729,986)"/>
<path d="M0 0 C0.33 0.99 0.66 1.98 1 3 C-1.25 4.5625 -1.25 4.5625 -4 6 C-5.32 5.67 -6.64 5.34 -8 5 C-4.04 2.525 -4.04 2.525 0 0 Z " fill="#47AD29" transform="translate(754,970)"/>
<path d="M0 0 C0.33 0 0.66 0 1 0 C1.25 3.25 1.25 3.25 1 7 C-0.32 8.32 -1.64 9.64 -3 11 C-2.01 7.37 -1.02 3.74 0 0 Z " fill="#B7BDC5" transform="translate(286,860)"/>
<path d="M0 0 C0.66 0.99 1.32 1.98 2 3 C0.35 4.65 -1.3 6.3 -3 8 C-3.33 7.01 -3.66 6.02 -4 5 C-2.0625 2.3125 -2.0625 2.3125 0 0 Z " fill="#1C293D" transform="translate(797,798)"/>
<path d="M0 0 C0.33 0 0.66 0 1 0 C1.25 3.25 1.25 3.25 1 7 C-0.32 8.32 -1.64 9.64 -3 11 C-2.01 7.37 -1.02 3.74 0 0 Z " fill="#C6CAD2" transform="translate(242,552)"/>
<path d="M0 0 C1.65 0 3.3 0 5 0 C3.9024777 2.99324263 3.32317108 3.84610901 0.375 5.25 C-0.40875 5.4975 -1.1925 5.745 -2 6 C-1.34 4.02 -0.68 2.04 0 0 Z " fill="#2C374A" transform="translate(286,551)"/>
<path d="M0 0 C0.66 0.33 1.32 0.66 2 1 C1.64950425 4.24208567 1.43778819 5.61527704 -1.0625 7.8125 C-1.701875 8.204375 -2.34125 8.59625 -3 9 C-2.01 6.03 -1.02 3.06 0 0 Z " fill="#D9DDE1" transform="translate(265,489)"/>
<path d="M0 0 C0.6875 1.6875 0.6875 1.6875 1 4 C-0.3125 6.75 -0.3125 6.75 -2 9 C-2.66 9 -3.32 9 -4 9 C-2.94124926 5.59687262 -1.99097846 2.98646769 0 0 Z " fill="#2B3345" transform="translate(293,397)"/>
<path d="M0 0 C0.33 0.99 0.66 1.98 1 3 C0.34 3 -0.32 3 -1 3 C-1 3.99 -1 4.98 -1 6 C-1.99 6.33 -2.98 6.66 -4 7 C-4.33 5.68 -4.66 4.36 -5 3 C-3.35 2.01 -1.7 1.02 0 0 Z " fill="#16212E" transform="translate(1050,395)"/>
<path d="M0 0 C0.66 0.99 1.32 1.98 2 3 C0.68 4.32 -0.64 5.64 -2 7 C-2.99 6.67 -3.98 6.34 -5 6 C-3.35 4.02 -1.7 2.04 0 0 Z " fill="#192537" transform="translate(347,320)"/>
<path d="M0 0 C0.66 0.33 1.32 0.66 2 1 C0.68 2.65 -0.64 4.3 -2 6 C-3.32 5.67 -4.64 5.34 -6 5 C-4.02 3.35 -2.04 1.7 0 0 Z " fill="#192537" transform="translate(418,252)"/>
<path d="M0 0 C0.66 0.33 1.32 0.66 2 1 C2 2.32 2 3.64 2 5 C0.35 5 -1.3 5 -3 5 C-1.125 1.125 -1.125 1.125 0 0 Z " fill="#DEE1E5" transform="translate(514,226)"/>
<path d="M0 0 C0.99 0.66 1.98 1.32 3 2 C3 2.66 3 3.32 3 4 C3.66 4.66 4.32 5.32 5 6 C2 6 2 6 -0.1875 4 C-0.785625 3.34 -1.38375 2.68 -2 2 C-1.34 1.34 -0.68 0.68 0 0 Z " fill="#182537" transform="translate(767,209)"/>
<path d="M0 0 C0.99 0.33 1.98 0.66 3 1 C0.03 3.475 0.03 3.475 -3 6 C-3.33 5.01 -3.66 4.02 -4 3 C-3.34 3 -2.68 3 -2 3 C-2 2.34 -2 1.68 -2 1 C-1.34 0.67 -0.68 0.34 0 0 Z " fill="#0F0F10" transform="translate(110,66)"/>
<path d="M0 0 C2.97 0.33 5.94 0.66 9 1 C9 1.33 9 1.66 9 2 C5.7 2.33 2.4 2.66 -1 3 C-0.67 2.01 -0.34 1.02 0 0 Z " fill="#363F50" transform="translate(232,959)"/>
<path d="M0 0 C0.99 0 1.98 0 3 0 C2.67 1.98 2.34 3.96 2 6 C1.01 6.33 0.02 6.66 -1 7 C-0.67 4.69 -0.34 2.38 0 0 Z " fill="#122035" transform="translate(503,746)"/>
<path d="M0 0 C1.80411967 2.75924185 2.0127245 3.88972103 1.625 7.25 C1.41875 8.1575 1.2125 9.065 1 10 C0.34 9.34 -0.32 8.68 -1 8 C-0.96712417 5.27130593 -0.43602229 2.7033382 0 0 Z " fill="#60BE33" transform="translate(1012,739)"/>
<path d="M0 0 C0.66 0 1.32 0 2 0 C2 1.98 2 3.96 2 6 C1.01 6.33 0.02 6.66 -1 7 C-0.67 4.69 -0.34 2.38 0 0 Z " fill="#1F2E43" transform="translate(238,544)"/>
<path d="M0 0 C0.66 0.66 1.32 1.32 2 2 C-0.31 3.65 -2.62 5.3 -5 7 C-5.66 6.67 -6.32 6.34 -7 6 C-4.69 4.02 -2.38 2.04 0 0 Z " fill="#202B3E" transform="translate(406,262)"/>
<path d="M0 0 C2.86724686 0.57344937 3.8614515 0.8614515 6 3 C3.625 3.625 3.625 3.625 1 4 C0.34 3.34 -0.32 2.68 -1 2 C-0.67 1.34 -0.34 0.68 0 0 Z " fill="#081325" transform="translate(648,217)"/>
</svg>
